<?xml version="1.0" encoding="utf-8"?>
<!-- Generator: Adobe Illustrator 15.0.0, SVG Export Plug-In  -->
<!DOCTYPE svg PUBLIC "-//W3C//DTD SVG 1.1 Basic//EN" "http://www.w3.org/Graphics/SVG/1.1/DTD/svg11-basic.dtd" [
	<!ENTITY ns_flows "http://ns.adobe.com/Flows/1.0/">
]>
<svg version="1.1" baseProfile="basic"
	 xmlns="http://www.w3.org/2000/svg" xmlns:xlink="http://www.w3.org/1999/xlink" xmlns:a="http://ns.adobe.com/AdobeSVGViewerExtensions/3.0/"
	 x="0px" y="0px" width="1013px" height="987px" viewBox="0 0 1013 987" enable-background="new 0 0 1013 987" xml:space="preserve"
	>
<defs>
</defs>
<path display="none" fill="none" d="M0,0h1013v987H0V0z"/>
<path d="M399.05,258.13c38.67-16.36,81.229-23.05,123.08-20.18c40.97,3.08,81.25,15.48,116.64,36.41
	c31.72,18.69,59.58,43.91,81.31,73.64c25.37,34.62,42.301,75.41,48.7,117.87c4.91,33.66,3.91,68.34-4.14,101.439
	c5.24,10.25,7.86,22.051,6.09,33.511c-2.02,17.25-13.08,33.029-28.479,41.02c-3.511,2.41-8.711,2.45-11.101,6.28
	c-28.05,44.939-69.51,81.479-117.86,103.21c-10.09,4.71-20.6,8.44-31.149,11.96c-0.55,0.12-1.64,0.36-2.19,0.48
	c-50.819,15.6-106.29,15.05-157.04-0.62c-37.989-12.03-73.38-32.33-102.6-59.46c-27.979-25.79-50.439-57.54-65.33-92.57
	c-6.64-15.37-11.45-31.45-15.37-47.69c-7-4.279-15.439-5.5-23.5-4.569c-16.649,1.72-32.399,7.739-48.51,11.859
	c11.48-8.46,24-15.5,36.98-21.37c-20.62,0.271-40.84,5.12-60.84,9.761c-5.36,1.33-10.721,2.699-16.021,4.229
	c20.59-22.03,47.68-36.939,75.61-47.6c-9.551-1.22-19.23-2.351-28.351-5.62c-8.55-2.86-16.52-7.29-23.68-12.75
	c6.9-0.21,13.83,0.229,20.71-0.57c21.24,0.15,43.54-1,62.48-11.67c3.479-46.05,19.319-91.1,45.319-129.25
	C309.01,312.71,350.93,278.21,399.05,258.13z"/>
<path fill="#F9FCFA" d="M473.02,247.56c34.07-3.5,68.9-1.19,101.82,8.56c69.63,19.84,129.75,70.28,161.51,135.32
	c15.7,31.52,24.84,66.33,26.45,101.51c-0.23,7.359,1.1,14.7,0.13,22.04c-0.22,14.489-2.17,28.88-4.84,43.109
	c-1.931-1.81-3.9-3.569-5.94-5.239c2.93-18.78,5.061-37.851,3.84-56.87c-0.26-4.971-0.42-9.94-0.91-14.891
	c-3.979-39.479-17.31-78.01-38.89-111.33c-21.71-33.83-51.56-62.4-86.3-82.61c-36-20.96-77.24-33.09-118.92-34.08
	c-5.01-0.74-10.09-0.2-15.13-0.37l-0.67,0.49c-43.75,0.62-87.051,14.05-124.351,36.74c-36.56,22.38-67.37,54.1-88.55,91.38
	c-16.34,28.47-26.899,60.2-31.109,92.74c-1.971,2.4-4.891,3.74-7.49,5.33c4.75-48.489,24.04-95.32,54.14-133.58
	c31.42-40.09,74.79-70.75,123.17-86.73C437.88,253.49,455.35,249.65,473.02,247.56z"/>
<path fill="#FCFDFC" d="M484.5,268.52c5.17-2.61,12.369-3,16.67,1.43c2.939,2.65,3.409,6.82,4.39,10.44
	c-2.81,0.24-5.63,0.4-8.44,0.37c-0.96-1.78-1-4.61-3.22-5.35c-1.79-0.46-3.63,0.05-5.41,0.25c-0.14,1.5-0.22,3-0.26,4.51
	c5.08,1.87,10.78,2.93,14.76,6.9c4.45,4.2,4.101,11.38,1.44,16.46c-3.97,7.46-15.101,8.49-21.3,3.35
	c-3.311-3.13-3.94-7.81-4.62-12.07c3.02,0,6.04,0,9.06-0.03c0.66,1.83,0.92,3.89,2.17,5.47c1.23,1.85,3.61,1.13,5.48,1.23
	c1.319-2.32,2.06-5.06,1.189-7.67c-2.909-2.74-7.239-2.7-10.67-4.49C477.819,285.86,476.979,272.85,484.5,268.52z"/>
<path fill="#FBFDFA" d="M524.159,268.95c4.95-1,11.13-0.85,14.78,3.21c3.01,3.06,3.39,7.62,3.35,11.68
	c-2.609-0.07-5.21-0.29-7.789-0.61c-0.851-1.86-1.36-3.84-2.131-5.73c-1.71-0.25-3.75-1.65-5.31-0.37c-2.021,0.93-2.28,4.08-0.12,5
	c4.24,2.25,9.061,3.99,12.021,8c3.76,4.66,2.649,11.64-0.53,16.3c-5.11,7.23-17.55,6.85-22.42-0.4c-2.26-3.35-2.101-7.59-2.24-11.44
	c2.97,0.36,5.94,0.77,8.93,0.93c0.53,2.29,0.301,5.01,2.08,6.79c1.021,0.6,2.2,0.85,3.33,1.18c0.58-0.32,1.72-0.95,2.29-1.271
	c1.23-2.18,1.49-4.66,1.04-7.1c-4.01-2.54-8.93-3.78-12.27-7.26C514.47,282,516.52,271.27,524.159,268.95z"/>
<path fill="#FBFDFA" d="M443.97,275.16c3.68-2.91,8.75-3.62,13.229-2.46c5.24,1.86,8.75,6.98,9.48,12.39
	c-2.94,0.75-5.891,1.48-8.88,1.92c-0.46-1.45-0.91-2.9-1.36-4.34c-1.58-0.36-3.15-0.71-4.729-1.06c-1.57,1.09-3.58,1.97-4,4.05
	c0.92,5.55,2.1,11.06,3.399,16.52c0.71,3.7,5.92,4.89,8.4,2.21c1.68-1.46,1.05-3.94,1.39-5.88c2.71-0.85,5.46-1.7,8.29-2.08
	c1.91,2.62,1.75,6.22,0.98,9.23c-1.96,5.27-7.431,8.14-12.58,9.46c-6.801,0.95-14.48-3.67-15.54-10.74
	c-1.2-6.18-2.471-12.35-3.521-18.55C437.67,281.47,440.689,277.62,443.97,275.16z"/>
<path fill="#FBFDFA" d="M583.96,296.21c2.22-4.65,6.449-9.25,12.029-9.01c7.74,0.05,16.5,6.42,15.2,14.92
	c-1.12,5.85-4.51,10.91-6.62,16.42c-2.399,5-4.149,10.34-7.03,15.1c-2.729-0.71-5.199-2.11-7.76-3.24
	c0.641-3.82,2.75-7.12,4.19-10.65c2.359-5.59,5.05-11.04,7.28-16.68c0.92-1.88-0.271-3.69-0.87-5.44
	c-2.38-0.35-5.681-1.16-6.96,1.58c-4.051,8.89-7.881,17.88-11.94,26.76c-3.31-0.33-6.27-1.95-9.09-3.58
	C576.18,313.64,580.149,304.96,583.96,296.21z"/>
<path fill="#FAFDFA" d="M371.38,305.83c2.6-1.56,5.17-3.2,7.899-4.53c6.11,9.66,11.38,19.84,17.4,29.56
	c4.52-2.55,8.91-5.31,13.52-7.66c1.54,2.54,3,5.12,4.351,7.76c-7.261,3.91-14.28,8.25-21.49,12.27
	C385.81,330.77,378.75,318.21,371.38,305.83z"/>
<path fill="#FBFDFA" d="M622.97,308.92c6.49-4.32,16.43-1.81,20.069,5.08c1.091,1.82,1.61,3.9,2.311,5.9
	c-0.2,2.81-0.58,5.77-2.34,8.09c-3.79,5.24-7.311,10.68-11.28,15.78c-2.91,3.64-8.05,4.41-12.38,3.42
	c-8.08-1.53-14.05-10.85-10.771-18.68c2.08-3.76,4.86-7.09,7.19-10.7C618.05,314.76,619.859,311.23,622.97,308.92z"/>
<path fill="#010101" d="M625.159,319.02c1.08-1.77,2.96-2.69,4.801-3.5c1.52,0.67,3.04,1.36,4.54,2.1
	c0.81,2.26,1.84,4.94,0.239,7.13c-2.37,3.64-4.88,7.19-7.439,10.69c-2.37,2.89-6.681,3.04-9.521,0.77c-0.399-1.12-0.8-2.22-1.2-3.33
	C618.47,327.72,622.159,323.54,625.159,319.02z"/>
<path fill="#FBFDFB" d="M347.119,324.14c4.96-5.17,14.41-6.29,19.591-0.84c6.869,7.45,13.949,14.73,20.64,22.37
	c-2.18,2.01-4.29,4.1-6.47,6.1c-7.15-6.8-13.29-14.58-20.4-21.41c-1.49-1.59-3.8-0.92-5.71-0.98c-1.23,1.89-2.59,4.56-0.83,6.59
	c6.33,7.17,12.97,14.08,19.58,21c-0.03,0.61-0.05,1.23-0.07,1.85c-2.25,1.8-4.279,3.85-6.41,5.79
	c-5.96-6.6-12.22-12.93-18.109-19.59c-1.65-1.68-3.45-4.03-6.13-3.27c-2.75,0.77-4.44,4.5-2.12,6.67
	c6.57,7.36,13.39,14.5,20.18,21.67c-2.01,2.44-4.43,4.48-6.84,6.52c-6.81-7.07-13.39-14.37-20.16-21.47
	c-3.939-3.76-4.63-9.92-2.479-14.79c1.739-5.1,6.989-8.03,12.189-8.27C344.319,329.27,345.029,326.3,347.119,324.14z"/>
<path fill="#FFFFFF" d="M426.77,338.63c35.38-16.24,76-20.57,114.05-12.45c36.75,7.68,70.84,27.14,96.44,54.55
	c13.99,15.07,25.51,32.4,33.939,51.16c5.7,13.38,10.34,27.311,12.66,41.71c-19.13-3.75-38.02-8.84-56.39-15.39
	c-8.72-3.15-17.36-6.63-25.51-11.07c-1.29-0.67-2.44-1.55-3.33-2.68c-3.69-4.38-7.38-8.74-11.08-13.1
	c-0.931-1.71-2.931-1.061-4.48-1.141c-0.34-1.779-0.6-3.569-0.83-5.35c-3.63-3.7-3.55-8.96-3.72-13.79
	c-1.5-14.65-0.78-29.71-5.1-43.96c-5.67-12.62-17.29-22.83-31.12-25.23c-9.771-1.53-19.88-0.77-29.38,1.95
	c-17.66,4.95-33.801,14.06-49.11,23.97c-13.83,9.09-26.97,19.2-39.69,29.77c-15.729,0.87-30.27,7.54-44.09,14.59
	c-9.06,4.41-18.1,9.29-28.05,11.37c-4.95,0.63-9.93,1.01-14.8,2.19C355.789,387.5,388.02,356.14,426.77,338.63z"/>
<path fill="#FBFDFB" d="M654.949,330c1.69-1.7,3.16-4.15,5.891-3.98c4.41,5.37,11.489,8.9,13.359,16.03
	c0.641,3.89-0.21,8.24-3,11.15c-4.08,4.59-8.26,9.1-12.59,13.46c-3.46,3.64-9.12,3.94-13.64,2.49c-5.69-3.07-10.05-8.02-14.75-12.37
	C638.229,347.64,646.85,339.06,654.949,330z"/>
<path fill="#010001" d="M660.149,338.83c2.561,1.54,4.66,3.84,4.811,6.99c-4.54,4.91-9.07,9.84-13.7,14.67
	c-1.431-0.03-2.87-0.05-4.29-0.08c-1.21-1.18-2.431-2.36-3.641-3.52C649.02,350.95,654.64,344.94,660.149,338.83z"/>
<path fill="#FFFFFF" d="M488.119,371.99c13.931-8.01,28.75-15.58,44.931-17.43c10.26-1.38,21.819,1.65,28.229,10.25
	c5.23,5.72,5.811,13.81,6.521,21.15c0.92,7.37,0.51,14.84,1.649,22.2c-2.87,0.55-5.71,1.37-8.63,1.6c-1.5-0.71-2.99-1.4-4.31-2.39
	c-0.51-2-0.82-4.04-1.13-6.08c-11.79,2.19-24.221,4.63-33.87,12.23c-4.851,3.7-7.721,9.42-8.721,15.36
	c-0.01,1.79-0.05,3.59,0.08,5.4c1.631,1.359,3.971,1,5.94,1.489c-2.75,5.051-5.21,10.341-5.96,16.101c0,1,0,3,0,4
	c4.61-0.72,8.53-3.36,12.84-4.95c-0.189,1.03-0.56,3.09-0.74,4.12c-0.09,1.4-0.17,2.8-0.239,4.2c0.899,2.22,1.989,4.35,3.25,6.38
	c6.21-1.351,11.579-4.94,17.51-7.061c-0.17,0.86-0.51,2.58-0.681,3.44c0.24,0.68,0.711,2.03,0.94,2.7
	c6.38-1.561,12.44-4.3,17.81-8.08c7.011-4.5,13.82-10.41,22.351-11.521c4.76,3,6.979,9.2,12.01,12.091
	c8.18,4.939,17.061,8.579,25.96,12c18.28,6.79,37.09,12.149,56.17,16.159c9.92,2.17,20.03,3.65,29.65,6.99
	c5.38,1.95,10.8,5.24,13.18,10.69c4.48,10.71,4.42,23.38-0.859,33.79c-4.73,8.72-13.171,15.84-23.051,17.739
	c-39.56,9.15-79.76,15.301-119.979,20.65c-11.95,1.32-23.87,2.76-35.851,3.77c-27.619,2.471-55.35,3.86-83.1,3.521
	c-9.09,0.13-18.26-0.08-27.14-2.19c-3.48-1.319-7.051-2.8-9.561-5.659c-3.439-3.341-4.399-8.2-5.28-12.71
	c-1.47-8.28-3.439-16.521-3.72-24.961c-0.31-7.34,2.181-14.35,3.57-21.47c4.31-21.479,7.689-43.17,13.18-64.41
	c0.73-2.6,0.32-5.35,1.04-7.949c2.891-12.08,6.3-24.021,9.42-36.041c0.37-1.03,0.51-2.27,1.38-3
	C457.3,392.49,472.18,381.4,488.119,371.99z"/>
<path fill="#FBFDFB" d="M653.939,380.44c11.67-8.44,23.3-16.93,34.99-25.34c4.17,6.01,8.58,11.85,12.82,17.81
	c-2.41,1.7-4.681,3.62-7.29,5c-2.86-3.24-5.25-6.87-7.75-10.39c-1.86,1.3-3.74,2.57-5.62,3.83c0.109,2.92,2.52,4.91,3.899,7.31
	c-2.21,1.65-4.45,3.28-6.75,4.81c-1.529-2.13-3-4.3-4.72-6.27c-1.99,1.16-3.85,2.51-5.73,3.82c-0.329,0.41-0.989,1.23-1.319,1.64
	c2.54,3.43,5.08,6.86,7.47,10.41c-2.37,1.8-4.8,3.51-7.31,5.11C662.479,392.21,657.789,386.61,653.939,380.44z"/>
<path fill="#FCFDFA" d="M312.909,359.86c0.94-1.27,1.71-2.73,3.021-3.66c2.609,1.16,4.689,3.22,7,4.88
	c-1.82,2.53-3.69,5.01-5.37,7.65c9.229,6.61,18.34,13.38,27.59,19.95c-1.37,2.6-3.18,4.92-4.95,7.25
	c-9.41-6.66-18.63-13.58-28.05-20.22c-1.6,2.37-3.12,4.81-4.96,7c-2.93-0.15-4.97-3.03-7.42-4.42
	C303.76,371.88,308.649,366.09,312.909,359.86z"/>
<path fill="#FCFEFB" d="M289.47,397.36c1.57-3.05,3.15-6.1,5.06-8.95c12.351,6.72,25.021,12.94,37.17,20.01
	c0.15,3.38-2.71,6.4-4.3,9.31c-5.11-2.44-9.79-5.8-15.13-7.7c-0.79,1.74-1.6,3.49-2.39,5.25c4.819,2.88,10.159,4.88,14.729,8.201
	c-1.47,2.979-3.08,5.89-4.64,8.819c-12.67-6.37-25.09-13.25-37.63-19.84c-0.47-1.9,1.17-3.65,1.84-5.36
	c0.89-1.25,1.25-3.23,2.82-3.78c5.08,2.27,9.779,5.33,14.859,7.63c0.94-1.75,1.9-3.49,2.92-5.2
	C299.699,402.91,294.5,400.28,289.47,397.36z"/>
<path fill="#F6FCF8" d="M671.09,402.12c1.13-3.08,4.949-3.27,7.38-1.66c1.06,2.18,1.149,4.49-0.061,6.63
	c-1.22,0.48-2.43,0.96-3.64,1.46C672.539,407.3,669.25,405.05,671.09,402.12z"/>
<path fill="#F8FBF9" d="M523.579,422.23c9.181-7.9,20.74-11.9,32.11-15.46l0.82,0.6c1.319,0.99,2.81,1.68,4.31,2.39
	c-12.63,4.99-24.8,11.07-37.26,16.45C523.539,424.87,523.55,423.56,523.579,422.23z"/>
<path fill="#FCFDFB" d="M681.689,415.78c1.67-3.94,5.46-6.34,9.23-7.99c1.29,2.97,2.649,5.91,3.92,8.9
	c-2.59,1.39-5.011,3.44-4.45,6.68c1.5,0.38,3.07,1.7,4.66,0.89c9.47-3.81,18.52-8.58,27.88-12.64c1.35,3.14,2.88,6.19,4.14,9.37
	c-6.81,3.29-13.74,6.34-20.55,9.63c-4.7,1.89-9.58,4.7-14.82,3.71C683.659,432.99,678.17,423.24,681.689,415.78z"/>
<path fill="#FFFFFF" d="M360.079,436.61c23.921-4.82,43.23-22.87,67.801-25.4c-2.841,11.61-6.28,23.07-9.07,34.7
	c-0.84,3.64-0.7,7.45-1.83,11.03c-6.39,24.81-9.6,50.3-15.55,75.21c-1.61,7.479-0.71,15.21,0.71,22.649
	c0.71,4.971,1.76,9.93,3.7,14.59c-8.19,0.351-16.23,3.141-23.2,7.391c-7.95,4.68-13.92,12.899-23.51,14.439
	c-12.011,0.87-22.33-6.85-34.08-7.74c-4.261-0.02-8.23,2.11-12.521,1.94c0.78-0.58,1.561-1.14,2.351-1.7
	c6.01-3.149,11.989-6.79,18.84-7.77c8.359-0.95,16.77-1.54,25.069-2.92c4.54-0.82,8.721-2.96,12.181-5.99
	c4.56-3.84,12.05-4.67,14.13-10.99c0.439-4.5-0.5-11.76-6.13-12.359c-4.8,0.689-8.75,3.899-12.45,6.81
	c-6.16,4.85-11.72,10.5-18.37,14.71c-2.99,2.061-6.77,1.46-10.189,1.51c-5.061-0.08-9.87-1.99-14.891-2.37
	c-7.59,0.801-14.84,3.391-22.03,5.83c-5.51,1.7-11.14,3.561-16.979,3.271c-7.93-0.23-15.49-3.12-22.5-6.65
	c4.82-0.16,9.69,0.271,14.48-0.52c16.21-2.33,30.88-10.19,46.67-14.08c5.04-1.48,10.47,0.04,15.43-1.891
	c7.45-2.58,14.47-8.81,15.49-16.97c0.51-3.16-0.74-6.1-2.21-8.79c-4.48-4.07-10.71-1.609-15.311,0.891
	c-13.28,7.52-24.189,18.52-37.37,26.189c-3.569,2.03-7.649,3.23-11.779,3.061c-8.83-0.24-17.29-3.051-25.971-4.4
	c-8.01-1.49-16.18-1.2-24.279-0.88c15.25-7.38,32.64-6.61,48.97-9.601c5.98-1.149,12.5-1.939,17.39-5.869
	c1.94-1.4,2.01-3.98,2.34-6.12c-2.05-5.75-6.8-11.23-13.319-11.36c-10.11,0.311-18.51,6.71-26.64,12
	c-5.62,3.63-11.301,8.87-18.511,8.02c-7.39-1-14.609-3.439-22.14-3.34l-0.65-0.43c-7.25-0.13-14.489,0.64-21.609,1.97
	c6-3.75,12.06-7.659,18.939-9.58c8.13-2.37,16.74-1.42,25-2.92c13.771-3.899,22.65-16.189,34.96-22.739
	c3.681-1.79,7.86-3.28,11.99-2.37c10.39,1.68,16.56,11.819,26.51,14.55c8.88,2.18,18.17-1.19,25.35-6.4
	c3.9-2.71,7.091-6.6,8.15-11.31c-1.79-4.98-8.01-5.95-12.62-5.521c-7.729,0.69-12.27,7.771-18.79,11.04
	c-9.72-1.069-16.819-8.47-25.739-11.609c-5.74-1.45-12.4-0.75-17.051,3.189c-7.409,5.96-15.18,11.94-24.47,14.63
	c-10.79,3.5-22.439,1.761-32.979-1.779c11.02-1.12,22.2-3.471,31.75-9.341c11.71-6.979,20.42-19.38,34.46-22.039
	c7.81-2.03,15.529,1.47,22.239,5.17c4.24,2.119,8.851,4.63,13.75,3.699c7.391-1.68,12.75-7.39,18.98-11.27
	c2.95-1.91,6.939-2.08,9.18-5.05c1.88-1.561,1.25-4.13,1.41-6.261c-1.92-2.13-4.53-3.81-7.521-3.229
	c-9.72,0.84-15.47,10.31-24.52,12.89c-3.44,0.74-6.71-0.84-9.92-1.84c-5.33-1.85-10.91-3.22-16.6-2.96
	c-5.21-0.26-10.16,1.54-15.221,2.43c2.381-2.109,4.73-4.369,7.721-5.6c7.1-3.22,15.14-1.84,22.59-3.49
	c6.79-1.67,11.989-6.59,17.8-10.16c6.07-4.13,12.92-7.149,20.149-8.54C351.989,437.31,356.109,437.53,360.079,436.61z"/>
<path fill="#EEFAF9" d="M530.199,436.25c8.41-5.98,16.5-12.79,26.15-16.72c-2.18,2.47-4.64,4.661-7.24,6.65
	c-9.92,7.681-19.979,15.17-30.28,22.33C520.89,443.14,526.05,439.91,530.199,436.25z"/>
<path fill="#FDFDFC" d="M564.96,429.12c2.859-1,5.949-1.28,8.92-0.58c0.229,5.41-4.96,8.57-8.41,11.9
	c-10.78,8.6-23.33,14.619-36.04,19.779c0.75-5.29,2.55-10.33,4.439-15.29C543.869,439.01,553.869,432.81,564.96,429.12z"/>
<path fill="#FBFEFB" d="M712.71,442.82c2.189-4.061,6.979-5.65,11.29-6.13c8.34,0.119,13.06,9.96,11.14,17.229
	c-1.3,4.97-6.13,7.49-10.53,9.24c-0.76-2.71-1.45-5.44-2.149-8.16c1.51-1.27,4.35-1.82,4.34-4.21c0.05-1.44-0.25-2.85-0.4-4.271
	c-1.41-0.43-2.83-0.819-4.25-1.13c-0.34,0.591-1.01,1.75-1.35,2.341c-0.21,5.899-0.59,12.67-5.32,16.89
	c-3.46,3.52-8.85,3.43-13.38,2.76c-7.88-2.1-11.51-11.91-8.66-19.11c2.03-4.39,6.69-6.46,10.98-8.029
	c0.89,2.91,1.63,5.859,2.33,8.819c-2.25,1.4-6.19,2.471-5.561,5.891c-0.37,1.8,1.42,2.64,2.45,3.76c2.27-0.24,5.22,0.11,6.59-2.19
	C711.409,452.03,710.689,447.1,712.71,442.82z"/>
<path fill="#010102" d="M463.72,486.89c2.68-8.819,11.35-13.979,20.1-15.06c6.98-0.42,14.561,0.67,20.08,5.31
	c3.79,2.91,5.24,7.67,6.55,12.061c2.141,0,4.29,0.05,6.44,0.2c0.36-5.65,5.2-9.92,10.22-11.761c3.11-1.27,6.07,0.5,8.79,1.83
	c2.311-1.12,4.36-3.25,7.15-2.859c2.39-0.271,4.79,2.029,7.06,0.68c3.37-1.87,7.73-2.45,11.101-0.26
	c3.529,1.649,4.729,5.66,5.649,9.13c7.08-2.47,15.57-2.99,21.82,1.85c1.83-0.81,3.64-1.67,5.45-2.54
	c1.31-6.05,7.96-10.02,13.899-8.46c6.57,1.41,10.82,9.7,6.55,15.45c1.021,3.5,1.301,7.24-0.04,10.71
	c2.641,2.62,5.511,5.79,4.891,9.83c0.49,5.47-3.561,9.82-7.74,12.7c2.68,4.08,1.03,8.97,2.58,13.34c1.01,4.2,0.23,9.05-3.15,12.02
	c-4.64,4.961-12,4.23-18.13,5.351c-1.12-0.72-2.239-1.44-3.359-2.13c-6.24,2.939-13.95,3.479-19.69-0.891
	c-2.26,2.141-4.979,3.681-7.96,4.561c-3.05,4.189-7.07,8.38-12.39,9.31c-5.141,0.181-8.721-4.45-9.641-9.109
	c-5.16,1.62-10.479,0.89-15.5-0.841c-4.39,3.521-10.489,3.94-15.699,2.19c-2.23,4.35-5.37,8.34-9.851,10.53
	c-9.56,4.779-22.7,3.18-29.56-5.49c-5.73-7.07-4.79-18.13,1.96-24.22c-1-2.19-1.771-4.471-2.19-6.83c-1.35-0.4-2.689-0.811-4.02-1.2
	c-1.28,0.67-2.561,1.34-3.83,2.02c-6.771,0.021-13.62-0.67-20.25,1.091c-1.87-1.341-4.101-2.36-5.33-4.38
	c-1.16-2.07-0.92-4.5-0.98-6.771c-8.66-2.54-11.47-14.64-5.46-21.06c3.721-4.011,9.49-4.671,14.66-4.431
	c3.271-1.59,7.14-3.72,10.64-1.29c4.391,1.92,3.771,7.37,6.021,10.851c3.34,2.229,7.08-0.91,10.68-0.92
	C463.989,503.61,461.97,494.34,463.72,486.89z"/>
<path fill="#F9FCFA" d="M480.1,479.38c5.86-1.74,12.59-1.61,17.939,1.57c5.65,3.14,7.48,11.47,3.61,16.67
	c-1.61,2.14-4.29,2.97-6.64,3.979c2.87,7.57,7.3,16.15,15.64,18.591c4.82,1.31,8.601-3.45,13.28-3c2.609,0.069,2.41,3.33,2.63,5.189
	c-4.33,6.66-13.73,7.82-20.49,4.49c-6.78-3.47-11.149-10.28-13.89-17.17c-1.09-2.75-1.97-5.561-2.9-8.36
	c-0.43,0.061-1.31,0.17-1.74,0.23c0.101,1.66,0.211,3.33,0.33,5c1.061,0.479,2.12,0.96,3.19,1.449c-0.271,1.23-0.56,2.471-0.87,3.7
	c-1.939,3.391-4.88,6.12-8.3,7.98c-0.98-0.93-2.21-1.641-2.851-2.851c0.811-2.279,2.61-4.199,2.69-6.72
	c0.14-4.34-0.47-8.67-0.39-13.01c0.109-2.58-1.73-4.58-3.09-6.55c2.119-2.86,5.729-2.36,8.859-2.29c0.311,0.54,0.63,1.08,0.96,1.63
	c-0.43,2.29-0.62,4.609-0.7,6.939c2.851-0.01,6.33,0.36,8.19-2.33c2.92-3.26,0.21-8.319-3.56-9.449
	c-5.801-1.971-14.171-0.53-16.49,5.89c0.97,3.63,4.55,6.24,4.31,10.19c-1.54,0.58-3.17,1.93-4.859,1.01
	c-4.73-2.44-6.341-8.601-4.811-13.43C471.34,484.02,475.59,480.68,480.1,479.38z"/>
<path fill="#F4FAF9" d="M553.779,482.57c1.54-0.561,3.2-0.19,4.8-0.15c1.351,2.42,2.24,6.13-0.29,8.09
	c-2,0.771-4.949,0.65-5.859-1.64C550.97,486.79,552.289,484.21,553.779,482.57z"/>
<path fill="#F8FCF9" d="M523.489,488.76c1.29-2.75,4.17-4.21,6.82-5.38c3.6,8.21,1.53,17.5,3.16,26.11
	c0.89,1.05,1.92,1.99,2.91,2.97c0.029,0.54,0.08,1.63,0.109,2.17c-3.489,1.65-7.439,1.22-11.17,0.96
	c-0.03-0.61-0.08-1.84-0.109-2.45c0.71-1.09,1.43-2.18,1.979-3.359c-0.14-5.92-0.95-11.811-0.84-17.74
	C525.39,490.97,522.899,490.68,523.489,488.76z"/>
<path fill="#F8FCF9" d="M537.22,487c2.069-1.78,4.18-3.68,6.939-4.25c2.141,4.77,1.75,10.13,2.261,15.23
	c0.38,4.5-0.94,9.869,2.71,13.35c1.21,0,2.42,0,3.64,0c0.48-0.57,1.43-1.7,1.9-2.26c0.029-3.021,0.029-6.04-0.11-9.051
	c-0.89-0.22-2.67-0.649-3.56-0.869c0.84-3.61,4.06-5.73,7.26-7.051c2.18,5.08,1.149,10.75,2.2,16.07
	c1.069,1.11,2.149,2.22,3.239,3.33c-0.04,0.49-0.109,1.45-0.14,1.93c-3.23,0.601-6.51,0.87-9.79,0.91
	c-1.02-0.77-2.04-1.51-3.05-2.27c-2.45,4.52-8.41,3.14-12.5,2.25c0.87-2.41,2.88-4.54,2.55-7.261c-0.2-4.329-0.5-8.659-0.71-12.989
	c-0.15-1.04-0.28-2.07-0.39-3.101C537.55,490.6,537.289,488.78,537.22,487z"/>
<path fill="#F6FAF7" d="M601.3,485.41c2.06-3.92,9.45-2.08,8.37,2.67c-1.36,2.34-4.12,1.2-6.271,1.33
	c2.32,3.14,6.78,6.02,5.271,10.53c-1.79,4.199-7.03,4.54-10.851,5.8c-0.2,0.43-0.6,1.29-0.8,1.729c4.13,2.12,8.7-1.2,12.85,0.82
	c2.021,0.7,2.771,2.87,3.61,4.64c-1.42,6.92-9.19,9.61-15.47,9.13c-2.67-0.47-6.2-0.85-7.59-3.5c-1.25-2.42,1.04-5.39,3.63-4.92
	c2.26,1.58,4.21,3.601,6.71,4.84c2.29-0.869,6.43-1.25,5.68-4.67c-1.24-1.72-3.55-1.5-5.39-1.35c-2.771,0.22-5.55,0.22-8.33,0.16
	c-0.72-0.72-1.431-1.44-2.141-2.15c-0.01-0.92-0.01-1.83-0.01-2.729c1.101-1.01,2.21-2.021,3.34-3c-1.27-1.45-3.21-2.57-3.55-4.601
	c-0.729-2.26,0.561-4.359,1.41-6.35c3.05-1.66,6.39-2.59,9.82-3.06C601.1,489.02,599.689,486.93,601.3,485.41z"/>
<path fill="#F8FBF9" d="M574.569,493.68c2.42-1.52,5.62-3.56,8.41-1.68c3.021,2.05,2.6,6.04,2.9,9.21
	c-0.13,2.7,2.779,4.021,2.97,6.64c-2.51,2.67-5.01,7.181-9.37,5.57c0.79-5.24,2.21-10.95-0.27-15.95
	c-1.53,0.391-3.03,0.8-4.551,1.19c-0.399,2.109-1.149,4.22-0.85,6.399c0.26,2.91,2.97,4.57,4.3,6.98
	c-3.479,1.7-7.359,1.71-11.13,1.5c-0.39-0.48-1.18-1.45-1.57-1.93c0.96-1,1.931-1.98,2.95-2.92c0.271-0.82,0.561-1.62,0.84-2.431
	c-0.439-2.16-0.64-4.35-0.76-6.54c-0.75-0.14-2.229-0.42-2.979-0.56c0.02-1.54,0.399-3.01,0.96-4.42
	c1.71-1.15,3.409-2.32,5.159-3.431c1.08,1.221,1.82,2.65,2.54,4.12C574.229,494.99,574.46,494.12,574.569,493.68z"/>
<path fill="#030207" d="M595.779,497.8c0.76-2.84,4.061-2.649,6.36-2.28c0.74,1.131,1.34,2.33,1.78,3.631
	c-1.61,0.97-3.33,1.71-5.061,2.42C597.649,500.58,594.81,499.98,595.779,497.8z"/>
<path fill="#F8FBF6" d="M508.409,496.52c4.391-2.159,10.391-0.689,12.69,3.79c2.07,4.511,2.18,10.53-1.57,14.2
	c-2.75,3.04-7.45,2.7-11.069,1.82C500.84,512.99,500.739,499.88,508.409,496.52z"/>
<path fill="#152028" d="M487.539,501.57c0.431-0.061,1.311-0.17,1.74-0.23c0.931,2.8,1.811,5.61,2.9,8.36
	c-0.67,0.67-1.34,1.34-1.99,2.02c0.311-1.229,0.6-2.47,0.87-3.7c-1.07-0.489-2.13-0.97-3.19-1.449
	C487.75,504.9,487.64,503.23,487.539,501.57z"/>
<path fill="#020103" d="M509.64,501.72c2.14-2.399,6.6-0.85,6.979,2.29c0.32,2.59,0.82,6.16-2,7.62
	c-1.97,0.271-4.619,0.51-5.54-1.72C507.869,507.44,507.63,503.81,509.64,501.72z"/>
<path fill="#F2FAF9" d="M446.989,505.47c1.44-1.609,3.221-2.64,5.431-2.2c-0.011,1.82,0.27,3.98-1.5,5.12
	c-1.57,0.38-3.181,0.41-4.771,0.551c0.23,3.819,0.18,7.649,0.51,11.46c0.681,0.85,1.37,1.71,2.061,2.579
	c-1.891,2.561-3.83,5.931-7.54,5.641c0.66-4.061,2.89-8.63,0.14-12.4c-1.62,2.53-5.88,2.16-7.479-0.189
	c-2.29-2.61-1.811-7.21,1.13-9.16C438.449,504.35,443.02,505.9,446.989,505.47z"/>
<path fill="#030408" d="M436.079,513.35c0.421-1.619,0.15-3.79,2.061-4.479c1.29-0.271,2.6-0.4,3.93-0.4
	c0.09,1.95,0.22,3.91,0.4,5.88C440.46,513.37,438.229,513.5,436.079,513.35z"/>
<path fill="#F2F9F8" d="M450.92,508.39c0.729,0.271,2.189,0.801,2.93,1.061c0.37,2.08,0.39,4.21,0.55,6.33
	c2.25-1.141,4.561-1.551,6.78-0.09c0.229,1.93,0.43,3.859,0.58,5.8c0.609,0.859,1.229,1.729,1.85,2.609
	c-1.12,1.311-2.27,2.591-3.479,3.83c-0.721-0.14-2.15-0.42-2.87-0.56c1.05-2.91,1.859-6.3-0.09-9.05
	c-0.931,0.33-1.811,0.779-2.69,1.22c0.021,1.39,0.08,2.8,0.18,4.2c0.71,1.16,1.45,2.31,2.23,3.439c-2.38,0.33-4.78,0.54-7.18,0.591
	c-0.051-0.381-0.15-1.15-0.2-1.541c0.62-0.949,1.24-1.88,1.83-2.829c-0.73-3.07-0.681-6.24-0.69-9.37
	C447.09,513.2,450.25,510.32,450.92,508.39z"/>
<path fill="#F1FBF9" d="M467.539,514.47c3.061-0.609,7.261-0.34,7.98,3.45c1.2,4.32-4.56,3.78-7.26,3.9
	c0.14,0.439,0.43,1.319,0.58,1.76c2.31-0.05,4.439-1.07,6.72-1.33c0.77,5.46-8.7,6.29-10.18,1.44
	C463.569,520.43,465.01,516.82,467.539,514.47z"/>
<path fill="#61A6C3" d="M466.939,518.04c1.88-0.57,3.78-1.09,5.71-1.52C473,520.05,468.619,520.41,466.939,518.04z"/>
<path fill="#F8FCF9" d="M488.109,523.69c2.09,0.31,3.98-2.37,5.95-0.851c2.68,2.25,4.31,5.84,4.18,9.351
	c-0.88,0.729-1.89,1.25-2.88,1.8c-2.52-2.101-5.05-4.3-8.189-5.38c-1.221,0.439-2.45,0.88-3.66,1.33c-0.16,1.5-1.83,3.51,0.2,4.409
	c5.199,3.011,11.55,3.681,16.31,7.591c2.82,3.77,3.8,8.47,3.35,13.109c-3,11.53-19.149,14.66-27.47,7.021
	c-5.2-4.29-5.25-14.16,1.01-17.511c3.28-2.029,8.07-2,10.561,1.25c-0.46,1.091-0.91,2.19-1.36,3.29c-2.229,0.761-4.96,0.88-6.5,2.88
	c-0.77,2.82,0.37,6.181,3.21,7.341c3.76,1.659,8.86,1.279,11.83-1.75c3.36-3.83,2.351-10.54-2.2-12.99
	c-4.47-2.37-9.68-3.19-13.899-6.07c-3.311-2.29-3.88-7.21-1.49-10.359C479.38,524.47,483.97,523.13,488.109,523.69z"/>
<path fill="#F7FAF9" d="M592.699,528.71c2.73-2.439,6.83,0,9.62-2.32c0.51,0,1.54-0.01,2.05-0.01c1.36,2.141,2.41,4.47,3.261,6.88
	c-2.9,2.61-5.851-0.06-8.41-1.67c-0.46,0.061-1.4,0.16-1.86,0.22c-0.01,0.78-0.02,1.57-0.01,2.37c3.29,1.5,7.31,1.88,9.92,4.601
	c1.99,2.12,0.57,5-0.01,7.42c-2.63,2.26-5.99,2.88-9.36,2.279c-1.21,0.591-2.49,1.75-3.92,1.141c-2.38-2-3.92-4.95-3.82-8.09
	c3.63-1.91,6.431,1.63,9.66,2.729c2.38,0.96,1.851-1.989,2.13-3.27c-3.39-1.09-6.83-2.101-10.01-3.73
	c-0.36-0.58-1.08-1.739-1.439-2.319C590.46,532.68,590.909,530.26,592.699,528.71z"/>
<path fill="#F8FCF9" d="M553.069,532.08c2.771-1.64,6.181-3.42,9.351-1.64c6.109,3.439,6.85,12.71,2.909,18.069
	c-1.949,3.07-6.56,3.98-9.47,1.771c-1.71-0.88-1.85-3.681-0.32-4.79c1.431-0.21,2.891-0.3,4.36-0.28c2.33-2.24,2.93-5.36,1.41-8.25
	c-0.56-0.39-1.68-1.17-2.24-1.56c-2.14,0.02-4.859,0.55-5.35,3.04c-0.37,3.34-0.12,6.72,0.01,10.08c-0.05,1.93,1.92,2.88,2.81,4.39
	c0.461,1.569-1.05,2.64-1.84,3.77c-1.93,1.851-3.989,4.57-7.02,3.761c-1.22-2.75,0.5-5.61,0.42-8.42
	c-0.18-4.511-0.771-8.99-0.65-13.5c-0.97-0.471-1.939-0.931-2.89-1.391c-0.09-0.56-0.271-1.68-0.35-2.24
	c1.96-2.119,4.1-4.5,7.18-4.739C551.81,530.63,552.649,531.6,553.069,532.08z"/>
<path fill="#F8FBF9" d="M573.01,530.99c4.1-4.141,12.25-3.351,14.819,2.14c1.011,2.13,1.641,5.82-1.04,6.95
	c-3.319,1.729-7.109,1.22-10.689,1.25c0.09,0.51,0.29,1.55,0.39,2.06c3.95,2.92,7.641-1.22,11.771-1.08
	c0.08,1.25,0.34,2.521,0.18,3.79c-1.479,2.641-4.7,3.271-7.32,4.21c-4.97,0.07-9.979-3.119-10.76-8.25
	C569.21,538.229,570.25,533.89,573.01,530.99z"/>
<path fill="#F9FDF8" d="M525.77,534.72c2.52-3.83,7.76-4.06,11.75-2.899c4.96,1.83,5.93,7.76,5.78,12.399
	c-0.87,2.71-1.99,5.771-4.75,7.101c-2.67,1.56-5.83,0.96-8.761,1.069C523.399,549.24,521.39,540.3,525.77,534.72z"/>
<path fill="#F7FCF8" d="M508.39,534.31c1.85-1.64,4.36-2.039,6.649-2.699c2.11,0.739,4.53,1.16,6.15,2.83
	c1.21,1.63,0.89,4.159-1.01,5.149c-2.73-1.1-5.43-2.569-8.47-2.1c-1.71,3.03-2.471,7.54,0.71,9.899c3.399,1.67,6.6-1.76,10.109-1.22
	c0.07,1.78,0.91,4.21-1.05,5.32c-2.66,2.54-6.63,2.689-10.03,1.989C503.92,550.75,502.35,539.29,508.39,534.31z"/>
<path fill="#03080A" d="M576.84,533.72c2.55-0.58,6.29-1.199,6.479,2.48c-2.689,0.77-5.47,1.149-8.26,1.29
	C575.63,536.22,576.229,534.97,576.84,533.72z"/>
<path fill="#040304" d="M530.829,536.58c1.7-0.78,3.58-0.22,5.351,0.01c1.31,2.521,2.35,5.44,1.2,8.25
	c-1.04,3.47-6.721,3.55-7.9,0.09C529.069,542.15,528.47,538.68,530.829,536.58z"/>
<path fill="#FFFFFF" d="M709.119,565.66c7.07-1.62,12.2-7.15,17.66-11.37c9.9,1.03,19.311,5.71,26.24,12.83
	c6.06,6.76,10.24,15.62,9.85,24.85c0.57,12.26-5.909,24.051-15.34,31.58c-15.939,13.09-41.14,13.36-56.87-0.229
	c-9.31-7.771-14.6-20.271-13.08-32.36c0.771-7.35,3.87-14.3,8.341-20.14C693.689,569.29,701.38,567.35,709.119,565.66z"/>
<path fill="#FAFCFA" d="M251.29,574.12c2.91,2.91,5.76,5.88,8.72,8.74c2.15,1.84,2.49,4.81,3.479,7.319
	c14.261,40.32,38.88,76.9,70.891,105.28c28.52,25.4,62.79,44.38,99.59,54.7c41.93,11.87,86.95,12.67,129.25,2.149
	c59.96-14.51,113.81-52.109,148.56-103.01c2.94-0.34,5.891-0.66,8.86-0.79c-35.351,54.271-91.57,94.67-154.51,110.181
	c-15.13,3.949-30.65,6.3-46.23,7.33c-21.34,1.42-42.84,0.149-63.88-3.66c-41.44-7.471-80.9-25.41-113.97-51.44
	C298.229,676.57,265.689,627.96,251.29,574.12z"/>
<path fill="#FFFFFF" d="M648.609,577.76c1.271-0.149,2.59-0.62,3.891-0.3c7.77,6.32,13.319,15.44,14.56,25.46
	c3.09,19.58-10.96,39.17-29.57,44.72c-12.56,4.08-26.989,2.4-37.96-5.08c-8.6-5.59-14.97-14.58-17.02-24.67
	c-2.391-10.119-0.03-21.119,5.62-29.76c0.689-1.49,2.489-1.3,3.84-1.56C610.92,584.1,629.779,581,648.609,577.76z"/>
<path fill="#FFFFFF" d="M386.819,609.96c4.101-12.75,14.13-23.87,27.03-27.99c1.77,5.49,6.1,9.9,11.63,11.63
	c12.16,4.13,25.23,2.471,37.84,2.841c6.2,9.149,9.431,20.67,7.101,31.64c-3.28,19.46-21.7,34.78-41.37,34.76
	c-14.311,0.7-28.66-6.47-36.7-18.33C385.439,634.56,383.56,621.59,386.819,609.96z"/>
<path fill="#FFFFFF" d="M495.14,595.59c21.01-0.95,42.02-2.46,62.91-5c7.399,7.51,12.149,17.83,11.72,28.49
	c-0.11,12.54-7.01,24.49-17.19,31.63c-9.579,6.84-22.069,9.54-33.6,7c-14.95-2.95-27.68-14.84-31.21-29.74
	c-0.93-6.67-1.02-13.59,0.99-20.08C490.26,603.49,492.64,599.479,495.14,595.59z"/>
<path fill="#FAFCFB" d="M364.84,603.97c1.55-0.779,3.12-1.529,4.699-2.29c-3.55,8.601-4.55,17.971-4.079,27.19
	c-6.12-7.09-11.841-14.521-17.12-22.26C353.97,606.84,359.579,606.05,364.84,603.97z"/>
<path fill="#FBFDFB" d="M319.869,637.01c8.11-5.05,15.73-10.88,23.9-15.85c1.93,2.83,3.83,5.68,5.58,8.63
	c-7.37,4.8-14.58,9.82-21.95,14.6c-3.479,2.12-7.33,4.33-11.57,3.811c-7.529-0.25-13.55-8.01-12.39-15.351
	c0.83-4.51,4.04-8.47,8.22-10.34c1.62,2.57,3.49,4.97,5.051,7.58c-1.46,2.15-4.521,4.12-3.181,7.101
	C315.14,639.47,317.97,638.09,319.869,637.01z"/>
<path fill="#FCFDFB" d="M342.5,645.521c3.18-2.971,6.8-6.541,11.55-6c7.229,0.979,13.13,7.35,14.27,14.459
	c0.37,4.351-2.3,8.19-5.55,10.801c-7.19,6.38-13.84,13.37-21.28,19.47c-1.859-1.9-3.739-3.771-5.59-5.67
	c3.42-4.56,8.04-8.09,12.26-11.88c-2.08-2.561-4.29-5-6.54-7.391c-4.5,3.42-8.319,7.631-12.619,11.28
	c-1.95-1.74-3.79-3.59-5.62-5.45c-0.04-0.359-0.12-1.1-0.17-1.47C329.489,657.46,336.229,651.729,342.5,645.521z"/>
<path fill="#FFFFFF" d="M515.909,673.729c22.86,2.94,46.841-9.67,57.061-30.399c6.55,8.86,16,15.44,26.5,18.74
	c-0.03,0.21-0.11,0.64-0.15,0.85c-35.31,21.76-78.01,31.28-119.18,26.01c-15.59-1.96-31-5.819-45.53-11.84
	c16.88-3.37,31.71-14.92,39.54-30.2C482.8,661.771,498.8,672,515.909,673.729z"/>
<path fill="#020304" d="M351.88,649.3c3.81-0.25,8.199,3.311,6.67,7.38c-1.34,1.591-2.99,2.891-4.561,4.25
	c-2.33-2.25-4.59-4.569-6.72-7.01C348.8,652.37,350.34,650.83,351.88,649.3z"/>
<path fill="#FBFDFB" d="M377.97,657.96c2.359,1.561,4.6,3.3,6.88,4.99c-3,7.01-5.84,14.1-9.09,21
	c-0.11,0.649-0.351,1.939-0.471,2.58c6.381-5.57,13.07-10.76,19.61-16.141c2.16,1.79,4.39,3.49,6.67,5.131
	c-11.359,9.59-23.06,18.779-34.51,28.279c-2.16-1.64-4.34-3.24-6.54-4.82C366.239,685.26,372.229,671.67,377.97,657.96z"/>
<path fill="#FBFDF9" d="M586.699,687.271c7.98-4.461,15.73-9.311,23.521-14.08c1.609,2.5,3.149,5.05,4.53,7.699
	c-2.53,1.54-5.181,2.881-7.591,4.601c0.221,1.31,0.931,2.45,1.601,3.59c5.06,8.41,10.279,16.74,15.17,25.27
	c0.229,0.16,0.7,0.48,0.93,0.641c-2.55,1.479-5.04,3.05-7.479,4.689c-6.69-9.399-11.88-19.779-18.23-29.409
	c-2.71,1.579-5.36,3.26-8.16,4.68C589.56,692.38,588.109,689.83,586.699,687.271z"/>
<path fill="#FBFDFA" d="M407.579,682.82c8.08-2.38,17.99,2.739,20,11.1c0.811,4.42-1.869,8.3-3.72,12.07
	c-3.79,7.689-7.82,15.239-11.72,22.87c-2.62-1.15-5.15-2.48-7.65-3.851c2.511-5.1,5.12-10.14,7.66-15.22
	c-2.96-1.5-5.8-3.311-8.979-4.32c-2.351,4.94-5.11,9.681-7.381,14.67c-2.729-0.76-5.25-2.069-7.789-3.27
	c0.189-2.3,1.21-4.38,2.289-6.37c3.461-6.87,7.131-13.63,10.5-20.55C402.159,686.89,404.22,683.87,407.579,682.82z"/>
<path fill="#020304" d="M409.819,692.521c0.57-0.221,1.69-0.65,2.25-0.87c2.67,0.56,6.59,1.75,6.54,5.109
	c-0.649,2.13-1.85,4.04-2.89,6c-2.96-1.45-5.92-2.899-8.811-4.489C407.84,696.33,408.81,694.41,409.819,692.521z"/>
<path fill="#FCFEFC" d="M556.06,698.15c7.06-1.95,14.06-7.551,21.63-4.74c7.28,2.09,11.42,11.26,7.95,18.05
	c-2.2,4.43-6.59,7.11-11.11,8.69c1.88,5,3.94,9.939,5.62,15.02c-2.439,1.07-4.92,2.021-7.33,3.13c-0.6,0.021-1.2,0.04-1.79,0.07
	c-4-10.19-7.81-20.45-11.76-30.66C558.06,704.57,556.539,701.51,556.06,698.15z"/>
<path fill="#FAFCF9" d="M440.739,695.76c4.75-1.41,10.03-0.399,14.141,2.3c4.42,3.45,5.279,9.79,3.68,14.9
	c-2.61-0.67-5.2-1.4-7.74-2.26c-0.27-2.141,0.19-5.16-2.17-6.29c-1.43-1.04-3.24-0.72-4.87-0.83c-0.5,1.21-0.99,2.44-1.47,3.67
	c4.49,3.99,10.58,6.72,12.87,12.71c2.54,7.71-2.98,16.74-10.93,18.26c-1.171-0.029-2.32-0.04-3.471-0.04
	c-4.109-1.029-8.71-2.479-10.93-6.42c-2.37-3.819-1.67-8.53-1.04-12.739c2.93,0.63,5.87,1.289,8.69,2.35
	c0.199,2.83-0.131,5.9,2,8.14c1.039,0,3.109,0.011,4.14,0.011c1.35-1.881,3.02-4,2.7-6.45c-3.17-4.3-8.87-6-11.58-10.721
	C432.31,706.479,434.71,698.44,440.739,695.76z"/>
<path fill="#FBFEFA" d="M539.729,700.88c3.17-0.67,6.34-1.359,9.55-1.81c2.91,14.06,5.37,28.21,8.351,42.26
	c-2.61,0.62-5.23,1.18-7.88,1.6c-0.32,0.2-0.971,0.601-1.29,0.811c-1.301-3.521-1.78-7.25-2.54-10.891
	C543.859,722.19,541.75,711.55,539.729,700.88z"/>
<path fill="#020204" d="M568.159,703.771c2.591-1.07,5.341-1.841,8.17-1.24c1.11,1.99,1.95,4.34,0.94,6.569
	c-1.69,1.65-4.04,2.301-6.26,2.891C570.039,709.25,569,706.54,568.159,703.771z"/>
<path fill="#FCFEFD" d="M470.27,708.49c4.64-7.25,16.4-8.25,22.31-1.98c1.801,1.74,2.631,4.16,3.65,6.391
	c-0.01,2.27-0.02,4.55-0.06,6.84c-2.971,0.109-5.94-0.17-8.891-0.47c-0.029-1.53-0.069-3.061-0.06-4.57
	c-1.95-2.12-4.95-3.351-7.71-2.08c-2.45,1.74-2.021,5.03-2.58,7.63c-0.43,4.25-1.47,8.44-1.43,12.75c0.369,0.55,1.13,1.65,1.5,2.2
	c2.279,1.34,4.819,1.04,7.13-0.07c0.64-1.52,1.279-3.03,1.909-4.54c2.931,0.32,5.851,0.78,8.79,1.101
	c-0.01,4.39-1.479,9.359-5.609,11.569c-6.431,3.48-15.69,2.94-20.33-3.25c-3.74-4.109-2.84-10.04-1.9-15.03
	C468.18,719.51,468.119,713.7,470.27,708.49z"/>
<path fill="#FDFEFC" d="M503.149,704.4c5.61-0.79,11.28-1.19,16.95-1.19c2.89-0.1,5.5,1.28,7.99,2.6
	c4.09,5.011,4.84,12.391,1.75,18.091c-1,1.989-2.82,3.409-3.87,5.359c2.37,5.561,5.99,10.511,8.75,15.91
	c-3.21,0.05-6.4,0.351-9.59,0.56c-3.58-5.369-6.431-11.209-10.4-16.3c0.05,5.721,1.04,11.38,1.16,17.11
	c-3.03,0.26-6.04,0.68-9.08,0.78c-0.38-3.061-0.48-6.15-0.84-9.21c-0.601-7.34-1.271-14.681-1.931-22.021
	C503.59,712.2,503.409,708.3,503.149,704.4z"/>
<path fill="#010204" d="M513.329,712.21c3.101-0.939,6.28-0.39,8.95,1.4c0.36,1.199,0.74,2.42,1.12,3.63
	c-0.76,1.43-1.35,3.149-2.87,3.97c-2.04,0.6-4.14,0.94-6.24,1.28C513.6,719.1,513.359,715.66,513.329,712.21z"/>
</svg>
