<?xml version="1.0" encoding="utf-8"?>
<!-- Generator: Adobe Illustrator 15.0.0, SVG Export Plug-In  -->
<!DOCTYPE svg PUBLIC "-//W3C//DTD SVG 1.1//EN" "http://www.w3.org/Graphics/SVG/1.1/DTD/svg11.dtd" [
	<!ENTITY ns_flows "http://ns.adobe.com/Flows/1.0/">
]>
<svg version="1.1"
	 xmlns="http://www.w3.org/2000/svg" xmlns:xlink="http://www.w3.org/1999/xlink" xmlns:a="http://ns.adobe.com/AdobeSVGViewerExtensions/3.0/"
	 x="0px" y="0px" width="500px" height="500px" viewBox="-2.3 -33.432 500 500" enable-background="new -2.3 -33.432 500 500"
	 xml:space="preserve">
<defs>
</defs>
<path fill="#FFFFFF" d="M185.049,350.397c-22.852,0-41.379,18.517-41.379,41.36c0,22.86,18.527,41.379,41.379,41.379
	c22.843,0,41.37-18.519,41.37-41.379C226.419,368.916,207.892,350.397,185.049,350.397z"/>
<path fill="#FFFFFF" d="M365.622,350.397c-22.861,0-41.379,18.517-41.379,41.36c0,22.86,18.518,41.379,41.379,41.379
	c22.844,0,41.38-18.519,41.38-41.379C407.002,368.916,388.466,350.397,365.622,350.397z"/>
<path fill="#FFFFFF" d="M469.559,123.603l-229.192-0.019c-11.46,0-20.75,9.29-20.75,20.75s9.29,20.75,20.75,20.75l202.778-0.01
	l-12.864,43.533l-206.164,0.044c-10.631,0-19.25,8.619-19.25,19.25c0,10.632,8.619,19.25,19.25,19.25l194.768,0.076l-12.093,40.715
	H174.455L159.04,165.056L144.321,45.339c-1.198-9.473-8.066-17.251-17.319-19.611l-98-25C16.56-2.448,3.901,5.067,0.727,17.509
	c-3.174,12.442,4.339,25.102,16.781,28.275l82.667,21.089l32.192,241.591c0,0,1.095,28.183,26.69,28.183h256.81
	c21.518,0,25.678-22.438,25.678-22.438l50.896-151.159C492.441,163.03,507.532,123.603,469.559,123.603z"/>
</svg>
