<?xml version="1.0" encoding="utf-8"?>
<!-- Generator: Adobe Illustrator 15.0.0, SVG Export Plug-In  -->
<!DOCTYPE svg PUBLIC "-//W3C//DTD SVG 1.1//EN" "http://www.w3.org/Graphics/SVG/1.1/DTD/svg11.dtd" [
	<!ENTITY ns_flows "http://ns.adobe.com/Flows/1.0/">
]>
<svg version="1.1"
	 xmlns="http://www.w3.org/2000/svg" xmlns:xlink="http://www.w3.org/1999/xlink" xmlns:a="http://ns.adobe.com/AdobeSVGViewerExtensions/3.0/"
	 x="0px" y="0px" width="32px" height="18px" viewBox="-0.191 -0.485 32 18" enable-background="new -0.191 -0.485 32 18"
	 xml:space="preserve">
<defs>
</defs>
<path fill="#AD0F00" d="M5.986,13.623h19.643c0.436,0,0.786-0.351,0.786-0.787V4.193c0-0.436-0.35-0.787-0.784-0.787H5.986
	c-0.432,0-0.784,0.351-0.784,0.787v8.643C5.202,13.271,5.554,13.623,5.986,13.623z M23.928,4.387h0.917v2.359h-0.917V4.387z
	 M23.928,7.334h0.917l-0.002,2.355h-0.915V7.334z M23.928,10.417h0.915v2.357h-0.915V10.417z"/>
<path fill="#AD0F00" d="M0,10.996v4.408c0,0.897,0.725,1.625,1.62,1.625h28.375c0.896,0,1.621-0.728,1.621-1.625v-4.459
	c-1.345,0-2.435-1.09-2.433-2.432c0-1.342,1.09-2.431,2.433-2.431V1.621C31.617,0.726,30.893,0,29.996,0H1.62
	C0.724,0,0,0.727,0,1.621v4.511c1.342,0,2.43,1.09,2.43,2.432C2.43,9.908,1.342,10.996,0,10.996z M4.053,4.053
	c0-0.895,0.727-1.621,1.621-1.621h20.271c0.895,0,1.619,0.728,1.619,1.621l-0.002,8.921c0,0.895-0.726,1.621-1.619,1.621H5.674
	c-0.895,0-1.621-0.728-1.621-1.621V4.053z"/>
</svg>
