<?xml version="1.0" encoding="utf-8"?>
<!-- Generator: Adobe Illustrator 15.0.0, SVG Export Plug-In  -->
<!DOCTYPE svg PUBLIC "-//W3C//DTD SVG 1.1//EN" "http://www.w3.org/Graphics/SVG/1.1/DTD/svg11.dtd" [
	<!ENTITY ns_flows "http://ns.adobe.com/Flows/1.0/">
]>
<svg version="1.1"
	 xmlns="http://www.w3.org/2000/svg" xmlns:xlink="http://www.w3.org/1999/xlink" xmlns:a="http://ns.adobe.com/AdobeSVGViewerExtensions/3.0/"
	 x="0px" y="0px" width="32px" height="18px" viewBox="-0.191 -0.485 32 18" enable-background="new -0.191 -0.485 32 18"
	 xml:space="preserve">
<defs>
</defs>
<path fill="#AD0F00" d="M5.385,13.937h20.845c0.463,0,0.835-0.374,0.835-0.837V3.928c0-0.462-0.371-0.835-0.833-0.835H5.385
	c-0.458,0-0.832,0.372-0.832,0.835V13.1C4.553,13.562,4.926,13.937,5.385,13.937z M24.425,4.135h0.974v2.504h-0.974V4.135z
	 M24.425,7.263h0.974l-0.003,2.499h-0.971V7.263z M24.425,10.534h0.971v2.501h-0.971V10.534z"/>
<path fill="#AD0F00" d="M0,10.996v4.408c0,0.897,0.725,1.625,1.62,1.625h28.375c0.896,0,1.621-0.728,1.621-1.625v-4.459
	c-1.345,0-2.435-1.09-2.433-2.432c0-1.342,1.09-2.431,2.433-2.431V1.621C31.617,0.726,30.893,0,29.996,0H1.62
	C0.724,0,0,0.727,0,1.621v4.511c1.342,0,2.43,1.09,2.43,2.432C2.43,9.908,1.342,10.996,0,10.996z M4.053,4.053
	c0-0.895,0.727-1.621,1.621-1.621h20.271c0.895,0,1.619,0.728,1.619,1.621l-0.002,8.921c0,0.895-0.726,1.621-1.619,1.621H5.674
	c-0.895,0-1.621-0.728-1.621-1.621V4.053z"/>
<rect x="24.121" y="3.952" fill="#AD0F00" width="0.688" height="9.375"/>
</svg>
