<?xml version="1.0" encoding="utf-8"?>
<!-- Generator: Adobe Illustrator 15.0.0, SVG Export Plug-In  -->
<!DOCTYPE svg PUBLIC "-//W3C//DTD SVG 1.1//EN" "http://www.w3.org/Graphics/SVG/1.1/DTD/svg11.dtd" [
	<!ENTITY ns_flows "http://ns.adobe.com/Flows/1.0/">
]>
<svg version="1.1"
	 xmlns="http://www.w3.org/2000/svg" xmlns:xlink="http://www.w3.org/1999/xlink" xmlns:a="http://ns.adobe.com/AdobeSVGViewerExtensions/3.0/"
	 x="0px" y="0px" width="294px" height="159px" viewBox="0 0 294 159" enable-background="new 0 0 294 159" xml:space="preserve">
<defs>
</defs>
<rect x="33.9" y="20.6" fill="#AD0F00" width="224" height="119"/>
<rect x="266.8" y="70.1" fill="#AD0F00" width="1.3" height="1"/>
<rect x="222.9" y="30.6" fill="#AD0F00" width="4" height="8"/>
<rect x="228.9" y="38.6" fill="#AD0F00" width="3" height="45"/>
<rect x="226.4" y="39.1" fill="#FFFFFF" width="9" height="82"/>
<path fill="#AD0F00" stroke="#FFFFFF" stroke-width="3" stroke-miterlimit="10" d="M50.1,129.4h193.6c4.3,0,7.7-3.5,7.7-7.8V36.5
	c0-4.3-3.4-7.8-7.7-7.8H50.1c-4.3,0-7.7,3.5-7.7,7.8v85.2C42.4,126,45.8,129.4,50.1,129.4z M226.9,38.4h9v23.3h-9V38.4z M226.9,67.5
	h9v23.2h-9V67.5z M226.9,97.8h9V121h-9V97.8z"/>
<path fill="#AD0F00" d="M0,102.1V143c0,8.3,6.7,15.1,15,15.1h263.5c8.3,0,15.1-6.8,15.1-15.1v-41.4c-12.5,0-22.6-10.1-22.6-22.6
	s10.1-22.6,22.6-22.6V15.1c0-8.3-6.7-15.1-15-15.1H15C6.7,0,0,6.8,0,15.1V57c12.5,0,22.6,10.1,22.6,22.6C22.6,92,12.5,102.1,0,102.1
	z M37.6,37.6c0-8.3,6.7-15.1,15.1-15.1H241c8.3,0,15,6.8,15,15.1v82.9c0,8.3-6.7,15.1-15,15.1H52.7c-8.3,0-15.1-6.8-15.1-15.1V37.6z
	"/>
<rect x="1.2" y="3.9" fill="none" width="295.8" height="14.7"/>
<text transform="matrix(1 0 0 1 4.6943 13.0381)" fill="#FFFFFF" font-family="'Montserrat-Regular'" font-size="14">RS CONF 2015 RS CONF 2015 RS CONF 2015 RS </text>
<text transform="matrix(4.489659e-011 -1 1 4.489659e-011 270.8115 131.7773)" fill="#FFFFFF" font-family="'Montserrat-Regular'" font-size="18">0 1 6 2 3 2 0</text>
<text transform="matrix(-1.346898e-010 1 -1 -1.346898e-010 23.1436 27.0537)" fill="#FFFFFF" font-family="'Montserrat-Regular'" font-size="18">0 1 6 2 3 2 0</text>
<rect x="1.2" y="141.5" fill="none" width="284.3" height="14.7"/>
<text transform="matrix(1 0 0 1 4.6943 154.666)" fill="#FFFFFF" font-family="'Montserrat-Regular'" font-size="14">RS CONF 2015 RS CONF 2015 RS CONF 2015 RS </text>
<rect x="218.9" y="32.6" fill="#AD0F00" width="4" height="94"/>
<rect x="222.9" y="33.6" fill="#AD0F00" width="11" height="92"/>
<rect x="225.9" y="60.6" fill="#AD0F00" width="16" height="10"/>
<rect x="210.9" y="77.6" fill="#AD0F00" width="16" height="10"/>
<rect x="225.9" y="90.6" fill="#AD0F00" width="16" height="10"/>
<path display="none" opacity="0.2" fill="#FFFFFF" d="M124.5,15.9c7.7-3.3,16.2-4.6,24.6-4c8.2,0.6,16.3,3.1,23.3,7.3
	c6.3,3.7,11.9,8.8,16.3,14.7c5.1,6.9,8.5,15.1,9.7,23.6c1,6.7,0.8,13.7-0.8,20.3c1,2,1.6,4.4,1.2,6.7c-0.4,3.5-2.6,6.6-5.7,8.2
	c-0.7,0.5-1.7,0.5-2.2,1.3c-5.6,9-13.9,16.3-23.6,20.6c-2,0.9-4.1,1.7-6.2,2.4c-0.1,0-0.3,0.1-0.4,0.1c-10.2,3.1-21.3,3-31.4-0.1
	c-7.6-2.4-14.7-6.5-20.5-11.9c-5.6-5.2-10.1-11.5-13.1-18.5c-1.3-3.1-2.3-6.3-3.1-9.5c-1.4-0.9-3.1-1.1-4.7-0.9
	c-3.3,0.3-6.5,1.5-9.7,2.4c2.3-1.7,4.8-3.1,7.4-4.3c-4.1,0.1-8.2,1-12.2,2c-1.1,0.3-2.1,0.5-3.2,0.8c4.1-4.4,9.5-7.4,15.1-9.5
	c-1.9-0.2-3.8-0.5-5.7-1.1c-1.7-0.6-3.3-1.5-4.7-2.5c1.4,0,2.8,0,4.1-0.1c4.2,0,8.7-0.2,12.5-2.3c0.7-9.2,3.9-18.2,9.1-25.8
	C106.5,26.8,114.9,19.9,124.5,15.9z"/>
<path display="none" opacity="0.2" fill="#060305" d="M139.3,13.8c6.8-0.7,13.8-0.2,20.4,1.7c13.9,4,26,14.1,32.3,27.1
	c3.1,6.3,5,13.3,5.3,20.3c0,1.5,0.2,2.9,0,4.4c0,2.9-0.4,5.8-1,8.6c-0.4-0.4-0.8-0.7-1.2-1c0.6-3.8,1-7.6,0.8-11.4
	c-0.1-1-0.1-2-0.2-3c-0.8-7.9-3.5-15.6-7.8-22.3c-4.3-6.8-10.3-12.5-17.3-16.5c-7.2-4.2-15.4-6.6-23.8-6.8c-1-0.1-2,0-3-0.1
	l-0.1,0.1c-8.8,0.1-17.4,2.8-24.9,7.3c-7.3,4.5-13.5,10.8-17.7,18.3c-3.3,5.7-5.4,12-6.2,18.5c-0.4,0.5-1,0.7-1.5,1.1
	c0.9-9.7,4.8-19.1,10.8-26.7c6.3-8,15-14.2,24.6-17.3C132.3,14.9,135.7,14.2,139.3,13.8z"/>
<path display="none" opacity="0.2" fill="#030203" d="M141.6,18c1-0.5,2.5-0.6,3.3,0.3c0.6,0.5,0.7,1.4,0.9,2.1
	c-0.6,0-1.1,0.1-1.7,0.1c-0.2-0.4-0.2-0.9-0.6-1.1c-0.4-0.1-0.7,0-1.1,0c0,0.3,0,0.6-0.1,0.9c1,0.4,2.2,0.6,3,1.4
	c0.9,0.8,0.8,2.3,0.3,3.3c-0.8,1.5-3,1.7-4.3,0.7c-0.7-0.6-0.8-1.6-0.9-2.4c0.6,0,1.2,0,1.8,0c0.1,0.4,0.2,0.8,0.4,1.1
	c0.2,0.4,0.7,0.2,1.1,0.2c0.3-0.5,0.4-1,0.2-1.5c-0.6-0.5-1.4-0.5-2.1-0.9C140.2,21.4,140.1,18.8,141.6,18z"/>
<path display="none" opacity="0.2" fill="#040205" d="M149.5,18c1-0.2,2.2-0.2,3,0.6c0.6,0.6,0.7,1.5,0.7,2.3c-0.5,0-1-0.1-1.6-0.1
	c-0.2-0.4-0.3-0.8-0.4-1.1c-0.3-0.1-0.8-0.3-1.1-0.1c-0.4,0.2-0.5,0.8,0,1c0.8,0.5,1.8,0.8,2.4,1.6c0.8,0.9,0.5,2.3-0.1,3.3
	c-1,1.4-3.5,1.4-4.5-0.1c-0.5-0.7-0.4-1.5-0.4-2.3c0.6,0.1,1.2,0.2,1.8,0.2c0.1,0.5,0.1,1,0.4,1.4c0.2,0.1,0.4,0.2,0.7,0.2
	c0.1-0.1,0.3-0.2,0.5-0.3c0.2-0.4,0.3-0.9,0.2-1.4c-0.8-0.5-1.8-0.8-2.5-1.5C147.6,20.6,148,18.5,149.5,18z"/>
<path display="none" opacity="0.2" fill="#040205" d="M133.5,19.3c0.7-0.6,1.8-0.7,2.6-0.5c1,0.4,1.8,1.4,1.9,2.5
	c-0.6,0.1-1.2,0.3-1.8,0.4c-0.1-0.3-0.2-0.6-0.3-0.9c-0.3-0.1-0.6-0.1-0.9-0.2c-0.3,0.2-0.7,0.4-0.8,0.8c0.2,1.1,0.4,2.2,0.7,3.3
	c0.1,0.7,1.2,1,1.7,0.4c0.3-0.3,0.2-0.8,0.3-1.2c0.5-0.2,1.1-0.3,1.7-0.4c0.4,0.5,0.3,1.2,0.2,1.8c-0.4,1.1-1.5,1.6-2.5,1.9
	c-1.4,0.2-2.9-0.7-3.1-2.1c-0.2-1.2-0.5-2.5-0.7-3.7C132.2,20.5,132.8,19.8,133.5,19.3z"/>
<path display="none" opacity="0.2" fill="#040205" d="M161.5,23.5c0.4-0.9,1.3-1.8,2.4-1.8c1.5,0,3.3,1.3,3,3
	c-0.2,1.2-0.9,2.2-1.3,3.3c-0.5,1-0.8,2.1-1.4,3c-0.5-0.1-1-0.4-1.6-0.6c0.1-0.8,0.6-1.4,0.8-2.1c0.5-1.1,1-2.2,1.5-3.3
	c0.2-0.4-0.1-0.7-0.2-1.1c-0.5-0.1-1.1-0.2-1.4,0.3c-0.8,1.8-1.6,3.6-2.4,5.4c-0.7-0.1-1.3-0.4-1.8-0.7
	C159.9,27,160.7,25.2,161.5,23.5z"/>
<path display="none" opacity="0.2" fill="#050205" d="M119,25.4c0.5-0.3,1-0.6,1.6-0.9c1.2,1.9,2.3,4,3.5,5.9
	c0.9-0.5,1.8-1.1,2.7-1.5c0.3,0.5,0.6,1,0.9,1.6c-1.5,0.8-2.9,1.7-4.3,2.5C121.8,30.4,120.4,27.9,119,25.4z"/>
<path display="none" opacity="0.2" fill="#040205" d="M169.3,26c1.3-0.9,3.3-0.4,4,1c0.2,0.4,0.3,0.8,0.5,1.2c0,0.6-0.1,1.2-0.5,1.6
	c-0.8,1-1.5,2.1-2.3,3.2c-0.6,0.7-1.6,0.9-2.5,0.7c-1.6-0.3-2.8-2.2-2.2-3.7c0.4-0.8,1-1.4,1.4-2.1C168.3,27.2,168.6,26.5,169.3,26z
	"/>
<path display="none" opacity="0.2" fill="#FEFEFE" d="M169.7,28.1c0.2-0.4,0.6-0.5,1-0.7c0.3,0.1,0.6,0.3,0.9,0.4
	c0.2,0.5,0.4,1,0,1.4c-0.5,0.7-1,1.4-1.5,2.1c-0.5,0.6-1.3,0.6-1.9,0.2c-0.1-0.2-0.2-0.4-0.2-0.7C168.4,29.8,169.1,29,169.7,28.1z"
	/>
<path display="none" opacity="0.2" fill="#040204" d="M114.1,29.1c1-1,2.9-1.3,3.9-0.2c1.4,1.5,2.8,2.9,4.1,4.5
	c-0.4,0.4-0.9,0.8-1.3,1.2c-1.4-1.4-2.7-2.9-4.1-4.3c-0.3-0.3-0.8-0.2-1.1-0.2c-0.2,0.4-0.5,0.9-0.2,1.3c1.3,1.4,2.6,2.8,3.9,4.2
	c0,0.1,0,0.2,0,0.4c-0.5,0.4-0.9,0.8-1.3,1.2c-1.2-1.3-2.4-2.6-3.6-3.9c-0.3-0.3-0.7-0.8-1.2-0.7c-0.5,0.2-0.9,0.9-0.4,1.3
	c1.3,1.5,2.7,2.9,4,4.3c-0.4,0.5-0.9,0.9-1.4,1.3c-1.4-1.4-2.7-2.9-4-4.3c-0.8-0.8-0.9-2-0.5-3c0.3-1,1.4-1.6,2.4-1.7
	C113.5,30.1,113.7,29.5,114.1,29.1z"/>
<path display="none" opacity="0.2" d="M130,32c7.1-3.2,15.2-4.1,22.8-2.5c7.3,1.5,14.2,5.4,19.3,10.9c2.8,3,5.1,6.5,6.8,10.2
	c1.1,2.7,2.1,5.5,2.5,8.3c-3.8-0.8-7.6-1.8-11.3-3.1c-1.7-0.6-3.5-1.3-5.1-2.2c-0.3-0.1-0.5-0.3-0.7-0.5c-0.7-0.9-1.5-1.7-2.2-2.6
	c-0.2-0.3-0.6-0.2-0.9-0.2c-0.1-0.4-0.1-0.7-0.2-1.1c-0.7-0.7-0.7-1.8-0.7-2.8c-0.3-2.9-0.2-5.9-1-8.8c-1.1-2.5-3.5-4.6-6.2-5
	c-2-0.3-4-0.2-5.9,0.4c-3.5,1-6.8,2.8-9.8,4.8c-2.8,1.8-5.4,3.8-7.9,6c-3.1,0.2-6.1,1.5-8.8,2.9c-1.8,0.9-3.6,1.9-5.6,2.3
	c-1,0.1-2,0.2-3,0.4C115.8,41.7,122.3,35.5,130,32z"/>
<path display="none" opacity="0.2" fill="#040204" d="M175.7,30.2c0.3-0.3,0.6-0.8,1.2-0.8c0.9,1.1,2.3,1.8,2.7,3.2
	c0.1,0.8,0,1.6-0.6,2.2c-0.8,0.9-1.7,1.8-2.5,2.7c-0.7,0.7-1.8,0.8-2.7,0.5c-1.1-0.6-2-1.6-2.9-2.5C172.3,33.8,174,32.1,175.7,30.2z
	"/>
<path display="none" opacity="0.2" fill="#FEFFFE" d="M176.7,32c0.5,0.3,0.9,0.8,1,1.4c-0.9,1-1.8,2-2.7,2.9c-0.3,0-0.6,0-0.9,0
	c-0.2-0.2-0.5-0.5-0.7-0.7C174.5,34.4,175.6,33.2,176.7,32z"/>
<path display="none" opacity="0.2" d="M142.3,38.6c2.8-1.6,5.8-3.1,9-3.5c2.1-0.3,4.4,0.3,5.6,2c1,1.1,1.2,2.8,1.3,4.2
	c0.2,1.5,0.1,3,0.3,4.4c-0.6,0.1-1.1,0.3-1.7,0.3c-0.3-0.1-0.6-0.3-0.9-0.5c-0.1-0.4-0.2-0.8-0.2-1.2c-2.4,0.4-4.8,0.9-6.8,2.4
	c-1,0.7-1.5,1.9-1.7,3.1c0,0.4,0,0.7,0,1.1c0.3,0.3,0.8,0.2,1.2,0.3c-0.5,1-1,2.1-1.2,3.2c0,0.2,0,0.6,0,0.8c0.9-0.1,1.7-0.7,2.6-1
	c0,0.2-0.1,0.6-0.1,0.8c0,0.3,0,0.6,0,0.8c0.2,0.4,0.4,0.9,0.6,1.3c1.2-0.3,2.3-1,3.5-1.4c0,0.2-0.1,0.5-0.1,0.7
	c0,0.1,0.1,0.4,0.2,0.5c1.3-0.3,2.5-0.9,3.6-1.6c1.4-0.9,2.8-2.1,4.5-2.3c1,0.6,1.4,1.8,2.4,2.4c1.6,1,3.4,1.7,5.2,2.4
	c3.7,1.4,7.4,2.4,11.2,3.2c2,0.4,4,0.7,5.9,1.4c1.1,0.4,2.2,1,2.6,2.1c0.9,2.1,0.9,4.7-0.2,6.8c-0.9,1.7-2.6,3.2-4.6,3.5
	c-7.9,1.8-16,3.1-24,4.1c-2.4,0.3-4.8,0.6-7.2,0.8c-5.5,0.5-11.1,0.8-16.6,0.7c-1.8,0-3.7,0-5.4-0.4c-0.7-0.3-1.4-0.6-1.9-1.1
	c-0.7-0.7-0.9-1.6-1.1-2.5c-0.3-1.7-0.7-3.3-0.7-5c-0.1-1.5,0.4-2.9,0.7-4.3c0.9-4.3,1.5-8.6,2.6-12.9c0.1-0.5,0.1-1.1,0.2-1.6
	c0.6-2.4,1.3-4.8,1.9-7.2c0.1-0.2,0.1-0.5,0.3-0.6C136.1,42.7,139.1,40.5,142.3,38.6z"/>
<path display="none" opacity="0.2" fill="#040204" d="M175.5,40.3c2.3-1.7,4.7-3.4,7-5.1c0.8,1.2,1.7,2.4,2.6,3.6
	c-0.5,0.3-0.9,0.7-1.5,1c-0.6-0.6-1-1.4-1.5-2.1c-0.4,0.3-0.7,0.5-1.1,0.8c0,0.6,0.5,1,0.8,1.5c-0.4,0.3-0.9,0.7-1.3,1
	c-0.3-0.4-0.6-0.9-0.9-1.3c-0.4,0.2-0.8,0.5-1.1,0.8c-0.1,0.1-0.2,0.2-0.3,0.3c0.5,0.7,1,1.4,1.5,2.1c-0.5,0.4-1,0.7-1.5,1
	C177.2,42.7,176.2,41.6,175.5,40.3z"/>
<path display="none" opacity="0.2" fill="#030205" d="M107.3,36.2c0.2-0.3,0.3-0.5,0.6-0.7c0.5,0.2,0.9,0.6,1.4,1
	c-0.4,0.5-0.7,1-1.1,1.5c1.8,1.3,3.7,2.7,5.5,4c-0.3,0.5-0.6,1-1,1.4c-1.9-1.3-3.7-2.7-5.6-4c-0.3,0.5-0.6,1-1,1.4
	c-0.6,0-1-0.6-1.5-0.9C105.4,38.6,106.4,37.5,107.3,36.2z"/>
<path display="none" opacity="0.2" fill="#030104" d="M102.6,43.7c0.3-0.6,0.6-1.2,1-1.8c2.5,1.3,5,2.6,7.4,4c0,0.7-0.5,1.3-0.9,1.9
	c-1-0.5-2-1.2-3-1.5c-0.2,0.3-0.3,0.7-0.5,1.1c1,0.6,2,1,2.9,1.6c-0.3,0.6-0.6,1.2-0.9,1.8c-2.5-1.3-5-2.6-7.5-4
	c-0.1-0.4,0.2-0.7,0.4-1.1c0.2-0.3,0.3-0.6,0.6-0.8c1,0.5,2,1.1,3,1.5c0.2-0.4,0.4-0.7,0.6-1C104.6,44.8,103.6,44.3,102.6,43.7z"/>
<path display="none" opacity="0.2" fill="#090307" d="M178.9,44.7c0.2-0.6,1-0.7,1.5-0.3c0.2,0.4,0.2,0.9,0,1.3
	c-0.2,0.1-0.5,0.2-0.7,0.3C179.2,45.7,178.5,45.3,178.9,44.7z"/>
<path display="none" opacity="0.2" fill="#070406" d="M149.4,48.7c1.8-1.6,4.1-2.4,6.4-3.1l0.2,0.1c0.3,0.2,0.6,0.3,0.9,0.5
	c-2.5,1-5,2.2-7.5,3.3C149.4,49.2,149.4,49,149.4,48.7z"/>
<path display="none" opacity="0.2" fill="#030204" d="M181,47.4c0.3-0.8,1.1-1.3,1.8-1.6c0.3,0.6,0.5,1.2,0.8,1.8
	c-0.5,0.3-1,0.7-0.9,1.3c0.3,0.1,0.6,0.3,0.9,0.2c1.9-0.8,3.7-1.7,5.6-2.5c0.3,0.6,0.6,1.2,0.8,1.9c-1.4,0.7-2.7,1.3-4.1,1.9
	c-0.9,0.4-1.9,0.9-3,0.7C181.4,50.8,180.3,48.9,181,47.4z"/>
<path display="none" opacity="0.2" d="M116.7,51.6c4.8-1,8.6-4.6,13.6-5.1c-0.6,2.3-1.3,4.6-1.8,6.9c-0.2,0.7-0.1,1.5-0.4,2.2
	c-1.3,5-1.9,10.1-3.1,15c-0.3,1.5-0.1,3,0.1,4.5c0.1,1,0.4,2,0.7,2.9c-1.6,0.1-3.2,0.6-4.6,1.5c-1.6,0.9-2.8,2.6-4.7,2.9
	c-2.4,0.2-4.5-1.4-6.8-1.5c-0.9,0-1.6,0.4-2.5,0.4c0.2-0.1,0.3-0.2,0.5-0.3c1.2-0.6,2.4-1.4,3.8-1.6c1.7-0.2,3.4-0.3,5-0.6
	c0.9-0.2,1.7-0.6,2.4-1.2c0.9-0.8,2.4-0.9,2.8-2.2c0.1-0.9-0.1-2.4-1.2-2.5c-1,0.1-1.8,0.8-2.5,1.4c-1.2,1-2.3,2.1-3.7,2.9
	c-0.6,0.4-1.4,0.3-2,0.3c-1,0-2-0.4-3-0.5c-1.5,0.2-3,0.7-4.4,1.2c-1.1,0.3-2.2,0.7-3.4,0.7c-1.6,0-3.1-0.6-4.5-1.3
	c1,0,1.9,0.1,2.9-0.1c3.2-0.5,6.2-2,9.3-2.8c1-0.3,2.1,0,3.1-0.4c1.5-0.5,2.9-1.8,3.1-3.4c0.1-0.6-0.1-1.2-0.4-1.8
	c-0.9-0.8-2.1-0.3-3.1,0.2c-2.7,1.5-4.8,3.7-7.5,5.2c-0.7,0.4-1.5,0.6-2.4,0.6c-1.8,0-3.5-0.6-5.2-0.9c-1.6-0.3-3.2-0.2-4.9-0.2
	c3-1.5,6.5-1.3,9.8-1.9c1.2-0.2,2.5-0.4,3.5-1.2c0.4-0.3,0.4-0.8,0.5-1.2c-0.4-1.2-1.4-2.2-2.7-2.3c-2,0.1-3.7,1.3-5.3,2.4
	c-1.1,0.7-2.3,1.8-3.7,1.6c-1.5-0.2-2.9-0.7-4.4-0.7l-0.1-0.1c-1.4,0-2.9,0.1-4.3,0.4c1.2-0.8,2.4-1.5,3.8-1.9
	c1.6-0.5,3.3-0.3,5-0.6c2.8-0.8,4.5-3.2,7-4.5c0.7-0.4,1.6-0.7,2.4-0.5c2.1,0.3,3.3,2.4,5.3,2.9c1.8,0.4,3.6-0.2,5.1-1.3
	c0.8-0.5,1.4-1.3,1.6-2.3c-0.4-1-1.6-1.2-2.5-1.1c-1.5,0.1-2.5,1.6-3.8,2.2c-1.9-0.2-3.4-1.7-5.1-2.3c-1.1-0.3-2.5-0.1-3.4,0.6
	c-1.5,1.2-3,2.4-4.9,2.9c-2.2,0.7-4.5,0.4-6.6-0.4c2.2-0.2,4.4-0.7,6.4-1.9c2.3-1.4,4.1-3.9,6.9-4.4c1.6-0.4,3.1,0.3,4.4,1
	c0.8,0.4,1.8,0.9,2.8,0.7c1.5-0.3,2.5-1.5,3.8-2.3c0.6-0.4,1.4-0.4,1.8-1c0.4-0.3,0.3-0.8,0.3-1.3c-0.4-0.4-0.9-0.8-1.5-0.6
	c-1.9,0.2-3.1,2.1-4.9,2.6c-0.7,0.1-1.3-0.2-2-0.4c-1.1-0.4-2.2-0.6-3.3-0.6c-1-0.1-2,0.3-3,0.5c0.5-0.4,0.9-0.9,1.5-1.1
	c1.4-0.6,3-0.4,4.5-0.7c1.4-0.3,2.4-1.3,3.6-2c1.2-0.8,2.6-1.4,4-1.7C115.1,51.7,115.9,51.8,116.7,51.6z"/>
<path display="none" opacity="0.2" fill="#110506" d="M150.7,51.5c1.7-1.2,3.3-2.6,5.2-3.3c-0.4,0.5-0.9,0.9-1.4,1.3
	c-2,1.5-4,3-6.1,4.5C148.9,52.9,149.9,52.2,150.7,51.5z"/>
<path display="none" opacity="0.2" fill="#020203" d="M157.7,50.1c0.6-0.2,1.2-0.3,1.8-0.1c0,1.1-1,1.7-1.7,2.4
	c-2.2,1.7-4.7,2.9-7.2,4c0.2-1.1,0.5-2.1,0.9-3.1C153.5,52.1,155.5,50.8,157.7,50.1z"/>
<path display="none" opacity="0.2" fill="#040104" d="M187.2,52.8c0.4-0.8,1.4-1.1,2.3-1.2c1.7,0,2.6,2,2.2,3.4
	c-0.3,1-1.2,1.5-2.1,1.8c-0.2-0.5-0.3-1.1-0.4-1.6c0.3-0.3,0.9-0.4,0.9-0.8c0-0.3,0-0.6-0.1-0.9c-0.3-0.1-0.6-0.2-0.8-0.2
	c-0.1,0.1-0.2,0.3-0.3,0.5c0,1.2-0.1,2.5-1.1,3.4c-0.7,0.7-1.8,0.7-2.7,0.6c-1.6-0.4-2.3-2.4-1.7-3.8c0.4-0.9,1.3-1.3,2.2-1.6
	c0.2,0.6,0.3,1.2,0.5,1.8c-0.5,0.3-1.2,0.5-1.1,1.2c-0.1,0.4,0.3,0.5,0.5,0.8c0.5,0,1,0,1.3-0.4C187,54.7,186.8,53.7,187.2,52.8z"/>
<path display="none" opacity="0.2" fill="#FEFEFD" d="M137.4,61.6c0.5-1.8,2.3-2.8,4-3c1.4-0.1,2.9,0.1,4,1.1c0.8,0.6,1,1.5,1.3,2.4
	c0.4,0,0.9,0,1.3,0c0.1-1.1,1-2,2-2.4c0.6-0.3,1.2,0.1,1.8,0.4c0.5-0.2,0.9-0.6,1.4-0.6c0.5-0.1,1,0.4,1.4,0.1
	c0.7-0.4,1.5-0.5,2.2-0.1c0.7,0.3,0.9,1.1,1.1,1.8c1.4-0.5,3.1-0.6,4.4,0.4c0.4-0.2,0.7-0.3,1.1-0.5c0.3-1.2,1.6-2,2.8-1.7
	c1.3,0.3,2.2,1.9,1.3,3.1c0.2,0.7,0.3,1.4,0,2.1c0.5,0.5,1.1,1.2,1,2c0.1,1.1-0.7,2-1.5,2.5c0.5,0.8,0.2,1.8,0.5,2.7
	c0.2,0.8,0,1.8-0.6,2.4c-0.9,1-2.4,0.8-3.6,1.1c-0.2-0.1-0.4-0.3-0.7-0.4c-1.2,0.6-2.8,0.7-3.9-0.2c-0.5,0.4-1,0.7-1.6,0.9
	c-0.6,0.8-1.4,1.7-2.5,1.9c-1,0-1.7-0.9-1.9-1.8c-1,0.3-2.1,0.2-3.1-0.2c-0.9,0.7-2.1,0.8-3.1,0.4c-0.4,0.9-1.1,1.7-2,2.1
	c-1.9,1-4.5,0.6-5.9-1.1c-1.1-1.4-1-3.6,0.4-4.8c-0.2-0.4-0.4-0.9-0.4-1.4c-0.3-0.1-0.5-0.2-0.8-0.2c-0.3,0.1-0.5,0.3-0.8,0.4
	c-1.4,0-2.7-0.1-4,0.2c-0.4-0.3-0.8-0.5-1.1-0.9c-0.2-0.4-0.2-0.9-0.2-1.4c-1.7-0.5-2.3-2.9-1.1-4.2c0.7-0.8,1.9-0.9,2.9-0.9
	c0.7-0.3,1.4-0.7,2.1-0.3c0.9,0.4,0.8,1.5,1.2,2.2c0.7,0.4,1.4-0.2,2.1-0.2C137.5,65,137.1,63.1,137.4,61.6z"/>
<path display="none" opacity="0.2" fill="#060305" d="M140.7,60.1c1.2-0.3,2.5-0.3,3.6,0.3c1.1,0.6,1.5,2.3,0.7,3.3
	c-0.3,0.4-0.9,0.6-1.3,0.8c0.6,1.5,1.5,3.2,3.1,3.7c1,0.3,1.7-0.7,2.7-0.6c0.5,0,0.5,0.7,0.5,1c-0.9,1.3-2.7,1.6-4.1,0.9
	c-1.4-0.7-2.2-2.1-2.8-3.4c-0.2-0.5-0.4-1.1-0.6-1.7c-0.1,0-0.3,0-0.3,0c0,0.3,0,0.7,0.1,1c0.2,0.1,0.4,0.2,0.6,0.3
	c-0.1,0.2-0.1,0.5-0.2,0.7c-0.4,0.7-1,1.2-1.7,1.6c-0.2-0.2-0.4-0.3-0.6-0.6c0.2-0.5,0.5-0.8,0.5-1.3c0-0.9-0.1-1.7-0.1-2.6
	c0-0.5-0.3-0.9-0.6-1.3c0.4-0.6,1.1-0.5,1.8-0.5c0.1,0.1,0.1,0.2,0.2,0.3c-0.1,0.5-0.1,0.9-0.1,1.4c0.6,0,1.3,0.1,1.6-0.5
	c0.6-0.7,0-1.7-0.7-1.9c-1.2-0.4-2.8-0.1-3.3,1.2c0.2,0.7,0.9,1.2,0.9,2c-0.3,0.1-0.6,0.4-1,0.2c-0.9-0.5-1.3-1.7-1-2.7
	C138.9,61.1,139.8,60.4,140.7,60.1z"/>
<path display="none" opacity="0.2" fill="#0B0506" d="M155.4,60.8c0.3-0.1,0.6,0,1,0c0.3,0.5,0.4,1.2-0.1,1.6
	c-0.4,0.2-1,0.1-1.2-0.3C154.9,61.6,155.1,61.1,155.4,60.8z"/>
<path display="none" opacity="0.2" fill="#070306" d="M149.4,62c0.3-0.6,0.8-0.8,1.4-1.1c0.7,1.6,0.3,3.5,0.6,5.2
	c0.2,0.2,0.4,0.4,0.6,0.6c0,0.1,0,0.3,0,0.4c-0.7,0.3-1.5,0.2-2.2,0.2c0-0.1,0-0.4,0-0.5c0.1-0.2,0.3-0.4,0.4-0.7
	c0-1.2-0.2-2.4-0.2-3.5C149.8,62.4,149.3,62.4,149.4,62z"/>
<path display="none" opacity="0.2" fill="#070306" d="M152.1,61.6c0.4-0.4,0.8-0.7,1.4-0.9c0.4,1,0.3,2,0.5,3c0.1,0.9-0.2,2,0.5,2.7
	c0.2,0,0.5,0,0.7,0c0.1-0.1,0.3-0.3,0.4-0.5c0-0.6,0-1.2,0-1.8c-0.2,0-0.5-0.1-0.7-0.2c0.2-0.7,0.8-1.1,1.5-1.4
	c0.4,1,0.2,2.2,0.4,3.2c0.2,0.2,0.4,0.4,0.6,0.7c0,0.1,0,0.3,0,0.4c-0.6,0.1-1.3,0.2-2,0.2c-0.2-0.2-0.4-0.3-0.6-0.5
	c-0.5,0.9-1.7,0.6-2.5,0.5c0.2-0.5,0.6-0.9,0.5-1.5c0-0.9-0.1-1.7-0.1-2.6c0-0.2-0.1-0.4-0.1-0.6C152.2,62.4,152.1,62,152.1,61.6z"
	/>
<path display="none" opacity="0.2" fill="#090508" d="M164.9,61.3c0.4-0.8,1.9-0.4,1.7,0.5c-0.3,0.5-0.8,0.2-1.3,0.3
	c0.5,0.6,1.4,1.2,1.1,2.1c-0.4,0.8-1.4,0.9-2.2,1.2c0,0.1-0.1,0.3-0.2,0.3c0.8,0.4,1.7-0.2,2.6,0.2c0.4,0.1,0.6,0.6,0.7,0.9
	c-0.3,1.4-1.8,1.9-3.1,1.8c-0.5-0.1-1.2-0.2-1.5-0.7c-0.3-0.5,0.2-1.1,0.7-1c0.5,0.3,0.8,0.7,1.3,1c0.5-0.2,1.3-0.3,1.1-0.9
	c-0.2-0.3-0.7-0.3-1.1-0.3c-0.6,0-1.1,0-1.7,0c-0.1-0.1-0.3-0.3-0.4-0.4c0-0.2,0-0.4,0-0.5c0.2-0.2,0.4-0.4,0.7-0.6
	c-0.3-0.3-0.6-0.5-0.7-0.9c-0.1-0.5,0.1-0.9,0.3-1.3c0.6-0.3,1.3-0.5,2-0.6C164.9,62.1,164.6,61.6,164.9,61.3z"/>
<path display="none" opacity="0.2" fill="#070406" d="M159.6,63c0.5-0.3,1.1-0.7,1.7-0.3c0.6,0.4,0.5,1.2,0.6,1.8
	c0,0.5,0.6,0.8,0.6,1.3c-0.5,0.5-1,1.4-1.9,1.1c0.2-1,0.4-2.2-0.1-3.2c-0.3,0.1-0.6,0.2-0.9,0.2c-0.1,0.4-0.2,0.8-0.2,1.3
	c0.1,0.6,0.6,0.9,0.9,1.4c-0.7,0.3-1.5,0.3-2.2,0.3c-0.1-0.1-0.2-0.3-0.3-0.4c0.2-0.2,0.4-0.4,0.6-0.6c0.1-0.2,0.1-0.3,0.2-0.5
	c-0.1-0.4-0.1-0.9-0.2-1.3c-0.1,0-0.4-0.1-0.6-0.1c0-0.3,0.1-0.6,0.2-0.9c0.3-0.2,0.7-0.5,1-0.7c0.2,0.2,0.4,0.5,0.5,0.8
	C159.5,63.2,159.6,63.1,159.6,63z"/>
<path display="none" opacity="0.2" fill="#FCFDF8" d="M163.8,63.8c0.2-0.6,0.8-0.5,1.3-0.5c0.1,0.2,0.3,0.5,0.4,0.7
	c-0.3,0.2-0.7,0.3-1,0.5C164.2,64.4,163.6,64.2,163.8,63.8z"/>
<path display="none" opacity="0.2" fill="#070409" d="M146.4,63.6c0.9-0.4,2.1-0.1,2.5,0.8c0.4,0.9,0.4,2.1-0.3,2.8
	c-0.5,0.6-1.5,0.5-2.2,0.4C144.8,66.8,144.8,64.2,146.4,63.6z"/>
<path display="none" opacity="0.2" fill="#EADFD7" d="M142.2,64.6c0.1,0,0.3,0,0.3,0c0.2,0.6,0.4,1.1,0.6,1.7
	c-0.1,0.1-0.3,0.3-0.4,0.4c0.1-0.2,0.1-0.5,0.2-0.7c-0.2-0.1-0.4-0.2-0.6-0.3C142.2,65.2,142.2,64.9,142.2,64.6z"/>
<path display="none" opacity="0.2" fill="#FDFEFC" d="M146.6,64.6c0.4-0.5,1.3-0.2,1.4,0.5c0.1,0.5,0.2,1.2-0.4,1.5
	c-0.4,0.1-0.9,0.1-1.1-0.3C146.3,65.7,146.2,65,146.6,64.6z"/>
<path display="none" opacity="0.2" fill="#0D0506" d="M134.1,65.3c0.3-0.3,0.6-0.5,1.1-0.4c0,0.4,0.1,0.8-0.3,1
	c-0.3,0.1-0.6,0.1-1,0.1c0,0.8,0,1.5,0.1,2.3c0.1,0.2,0.3,0.3,0.4,0.5c-0.4,0.5-0.8,1.2-1.5,1.1c0.1-0.8,0.6-1.7,0-2.5
	c-0.3,0.5-1.2,0.4-1.5,0c-0.5-0.5-0.4-1.4,0.2-1.8C132.4,65.1,133.3,65.4,134.1,65.3z"/>
<path display="none" opacity="0.2" fill="#FCFBF7" d="M131.9,66.9c0.1-0.3,0-0.8,0.4-0.9c0.3-0.1,0.5-0.1,0.8-0.1
	c0,0.4,0,0.8,0.1,1.2C132.8,66.9,132.3,66.9,131.9,66.9z"/>
<path display="none" opacity="0.2" fill="#0D0607" d="M134.9,65.9c0.1,0.1,0.4,0.2,0.6,0.2c0.1,0.4,0.1,0.8,0.1,1.3
	c0.4-0.2,0.9-0.3,1.4,0c0,0.4,0.1,0.8,0.1,1.2c0.1,0.2,0.2,0.3,0.4,0.5c-0.2,0.3-0.5,0.5-0.7,0.8c-0.1,0-0.4-0.1-0.6-0.1
	c0.2-0.6,0.4-1.3,0-1.8c-0.2,0.1-0.4,0.2-0.5,0.2c0,0.3,0,0.6,0,0.8c0.1,0.2,0.3,0.5,0.4,0.7c-0.5,0.1-1,0.1-1.4,0.1
	c0-0.1,0-0.2,0-0.3c0.1-0.2,0.2-0.4,0.4-0.6c-0.1-0.6-0.1-1.2-0.1-1.9C134.1,66.9,134.7,66.3,134.9,65.9z"/>
<path display="none" opacity="0.2" fill="#0E0406" d="M138.2,67.1c0.6-0.1,1.5-0.1,1.6,0.7c0.2,0.9-0.9,0.8-1.5,0.8
	c0,0.1,0.1,0.3,0.1,0.4c0.5,0,0.9-0.2,1.3-0.3c0.2,1.1-1.7,1.3-2,0.3C137.4,68.3,137.7,67.6,138.2,67.1z"/>
<path display="none" opacity="0.2" fill="#9E593C" d="M138.1,67.9c0.4-0.1,0.8-0.2,1.1-0.3C139.3,68.3,138.4,68.3,138.1,67.9z"/>
<path display="none" opacity="0.2" fill="#070306" d="M142.3,69c0.4,0.1,0.8-0.5,1.2-0.2c0.5,0.4,0.9,1.2,0.8,1.9
	c-0.2,0.1-0.4,0.3-0.6,0.4c-0.5-0.4-1-0.9-1.6-1.1c-0.2,0.1-0.5,0.2-0.7,0.3c0,0.3-0.4,0.7,0,0.9c1,0.6,2.3,0.7,3.3,1.5
	c0.6,0.8,0.8,1.7,0.7,2.6c-0.6,2.3-3.8,2.9-5.5,1.4c-1-0.9-1-2.8,0.2-3.5c0.7-0.4,1.6-0.4,2.1,0.3c-0.1,0.2-0.2,0.4-0.3,0.7
	c-0.4,0.2-1,0.2-1.3,0.6c-0.2,0.6,0.1,1.2,0.6,1.5c0.8,0.3,1.8,0.3,2.4-0.4c0.7-0.8,0.5-2.1-0.4-2.6c-0.9-0.5-1.9-0.6-2.8-1.2
	c-0.7-0.5-0.8-1.4-0.3-2.1C140.6,69.1,141.5,68.9,142.3,69z"/>
<path display="none" opacity="0.2" fill="#080506" d="M163.2,70c0.5-0.5,1.4,0,1.9-0.5c0.1,0,0.3,0,0.4,0c0.3,0.4,0.5,0.9,0.7,1.4
	c-0.6,0.5-1.2,0-1.7-0.3c-0.1,0-0.3,0-0.4,0c0,0.2,0,0.3,0,0.5c0.7,0.3,1.5,0.4,2,0.9c0.4,0.4,0.1,1,0,1.5c-0.5,0.5-1.2,0.6-1.9,0.5
	c-0.2,0.1-0.5,0.4-0.8,0.2c-0.5-0.4-0.8-1-0.8-1.6c0.7-0.4,1.3,0.3,1.9,0.5c0.5,0.2,0.4-0.4,0.4-0.7c-0.7-0.2-1.4-0.4-2-0.7
	c-0.1-0.1-0.2-0.3-0.3-0.5C162.8,70.8,162.9,70.3,163.2,70z"/>
<path display="none" opacity="0.2" fill="#070306" d="M155.3,70.7c0.6-0.3,1.2-0.7,1.9-0.3c1.2,0.7,1.4,2.5,0.6,3.6
	c-0.4,0.6-1.3,0.8-1.9,0.4c-0.3-0.2-0.4-0.7-0.1-1c0.3,0,0.6-0.1,0.9-0.1c0.5-0.4,0.6-1.1,0.3-1.6c-0.1-0.1-0.3-0.2-0.4-0.3
	c-0.4,0-1,0.1-1.1,0.6c-0.1,0.7,0,1.3,0,2c0,0.4,0.4,0.6,0.6,0.9c0.1,0.3-0.2,0.5-0.4,0.8c-0.4,0.4-0.8,0.9-1.4,0.8
	c-0.2-0.6,0.1-1.1,0.1-1.7c0-0.9-0.2-1.8-0.1-2.7c-0.2-0.1-0.4-0.2-0.6-0.3c0-0.1-0.1-0.3-0.1-0.4c0.4-0.4,0.8-0.9,1.4-0.9
	C155,70.4,155.2,70.6,155.3,70.7z"/>
<path display="none" opacity="0.2" fill="#070406" d="M159.3,70.4c0.8-0.8,2.5-0.7,3,0.4c0.2,0.4,0.3,1.2-0.2,1.4
	c-0.7,0.3-1.4,0.2-2.1,0.3c0,0.1,0.1,0.3,0.1,0.4c0.8,0.6,1.5-0.2,2.4-0.2c0,0.3,0.1,0.5,0,0.8c-0.3,0.5-0.9,0.7-1.5,0.8
	c-1,0-2-0.6-2.2-1.7C158.5,71.9,158.7,71,159.3,70.4z"/>
<path display="none" opacity="0.2" fill="#060207" d="M149.8,71.2c0.5-0.8,1.6-0.8,2.3-0.6c1,0.4,1.2,1.6,1.2,2.5
	c-0.2,0.5-0.4,1.2-1,1.4c-0.5,0.3-1.2,0.2-1.8,0.2C149.4,74.1,149,72.3,149.8,71.2z"/>
<path display="none" opacity="0.2" fill="#080307" d="M146.4,71.1c0.4-0.3,0.9-0.4,1.3-0.5c0.4,0.1,0.9,0.2,1.2,0.6
	c0.2,0.3,0.2,0.8-0.2,1c-0.5-0.2-1.1-0.5-1.7-0.4c-0.3,0.6-0.5,1.5,0.1,2c0.7,0.3,1.3-0.4,2-0.2c0,0.4,0.2,0.8-0.2,1.1
	c-0.5,0.5-1.3,0.5-2,0.4C145.5,74.4,145.1,72.1,146.4,71.1z"/>
<path display="none" opacity="0.2" fill="#FCF7F5" d="M160,71c0.5-0.1,1.3-0.2,1.3,0.5c-0.5,0.2-1.1,0.2-1.7,0.3
	C159.8,71.5,159.9,71.2,160,71z"/>
<path display="none" opacity="0.2" fill="#FBFCFB" d="M150.8,71.6c0.3-0.2,0.7,0,1.1,0c0.3,0.5,0.5,1.1,0.2,1.7
	c-0.2,0.7-1.3,0.7-1.6,0C150.5,72.7,150.4,72,150.8,71.6z"/>
<path display="none" opacity="0.2" d="M186.5,77.4c1.4-0.3,2.4-1.4,3.5-2.3c2,0.2,3.9,1.1,5.2,2.6c1.2,1.4,2,3.1,2,5
	c0.1,2.5-1.2,4.8-3.1,6.3c-3.2,2.6-8.2,2.7-11.4,0c-1.9-1.6-2.9-4.1-2.6-6.5c0.2-1.5,0.8-2.9,1.7-4C183.4,78.1,185,77.7,186.5,77.4z
	"/>
<path display="none" opacity="0.2" fill="#050305" d="M94.9,79.1c0.6,0.6,1.2,1.2,1.7,1.7c0.4,0.4,0.5,1,0.7,1.5
	c2.9,8.1,7.8,15.4,14.2,21.1c5.7,5.1,12.6,8.9,19.9,10.9c8.4,2.4,17.4,2.5,25.8,0.4c12-2.9,22.8-10.4,29.7-20.6
	c0.6-0.1,1.2-0.1,1.8-0.2c-7.1,10.9-18.3,18.9-30.9,22c-3,0.8-6.1,1.3-9.2,1.5c-4.3,0.3-8.6,0-12.8-0.7c-8.3-1.5-16.2-5.1-22.8-10.3
	C104.3,99.6,97.8,89.8,94.9,79.1z"/>
<path display="none" opacity="0.2" d="M174.4,79.8c0.3,0,0.5-0.1,0.8-0.1c1.6,1.3,2.7,3.1,2.9,5.1c0.6,3.9-2.2,7.8-5.9,8.9
	c-2.5,0.8-5.4,0.5-7.6-1c-1.7-1.1-3-2.9-3.4-4.9c-0.5-2,0-4.2,1.1-6c0.1-0.3,0.5-0.3,0.8-0.3C166.9,81.1,170.6,80.4,174.4,79.8z"/>
<path display="none" opacity="0.2" d="M122,86.2c0.8-2.5,2.8-4.8,5.4-5.6c0.4,1.1,1.2,2,2.3,2.3c2.4,0.8,5,0.5,7.6,0.6
	c1.2,1.8,1.9,4.1,1.4,6.3c-0.7,3.9-4.3,7-8.3,7c-2.9,0.1-5.7-1.3-7.3-3.7C121.8,91.2,121.4,88.6,122,86.2z"/>
<path display="none" opacity="0.2" d="M143.7,83.4c4.2-0.2,8.4-0.5,12.6-1c1.5,1.5,2.4,3.6,2.3,5.7c0,2.5-1.4,4.9-3.4,6.3
	c-1.9,1.4-4.4,1.9-6.7,1.4c-3-0.6-5.5-3-6.2-5.9c-0.2-1.3-0.2-2.7,0.2-4C142.7,84.9,143.2,84.1,143.7,83.4z"/>
<path display="none" opacity="0.2" fill="#050304" d="M117.6,85c0.3-0.2,0.6-0.3,0.9-0.5c-0.7,1.7-0.9,3.6-0.8,5.4
	c-1.2-1.4-2.4-2.9-3.4-4.5C115.5,85.6,116.6,85.5,117.6,85z"/>
<path display="none" opacity="0.2" fill="#040204" d="M108.7,91.7c1.6-1,3.1-2.2,4.8-3.2c0.4,0.6,0.8,1.1,1.1,1.7
	c-1.5,1-2.9,2-4.4,2.9c-0.7,0.4-1.5,0.9-2.3,0.8c-1.5,0-2.7-1.6-2.5-3.1c0.2-0.9,0.8-1.7,1.6-2.1c0.3,0.5,0.7,1,1,1.5
	c-0.3,0.4-0.9,0.8-0.6,1.4C107.7,92.1,108.3,91.9,108.7,91.7z"/>
<path display="none" opacity="0.2" fill="#030204" d="M113.2,93.4c0.6-0.6,1.4-1.3,2.3-1.2c1.4,0.2,2.6,1.5,2.9,2.9
	c0.1,0.9-0.5,1.6-1.1,2.2c-1.4,1.3-2.8,2.7-4.3,3.9c-0.4-0.4-0.7-0.8-1.1-1.1c0.7-0.9,1.6-1.6,2.5-2.4c-0.4-0.5-0.9-1-1.3-1.5
	c-0.9,0.7-1.7,1.5-2.5,2.3c-0.4-0.3-0.8-0.7-1.1-1.1c0-0.1,0-0.2,0-0.3C110.6,95.7,111.9,94.6,113.2,93.4z"/>
<path display="none" opacity="0.2" d="M147.9,99c4.6,0.6,9.4-1.9,11.4-6.1c1.3,1.8,3.2,3.1,5.3,3.7c0,0,0,0.1,0,0.2
	c-7.1,4.4-15.6,6.3-23.8,5.2c-3.1-0.4-6.2-1.2-9.1-2.4c3.4-0.7,6.3-3,7.9-6C141.2,96.6,144.4,98.6,147.9,99z"/>
<path display="none" opacity="0.2" fill="#FDFCFB" d="M115.1,94.1c0.8,0,1.6,0.7,1.3,1.5c-0.3,0.3-0.6,0.6-0.9,0.9
	c-0.5-0.5-0.9-0.9-1.3-1.4C114.4,94.7,114.7,94.4,115.1,94.1z"/>
<path display="none" opacity="0.2" fill="#040204" d="M120.3,95.8c0.5,0.3,0.9,0.7,1.4,1c-0.6,1.4-1.2,2.8-1.8,4.2
	c0,0.1-0.1,0.4-0.1,0.5c1.3-1.1,2.6-2.2,3.9-3.2c0.4,0.4,0.9,0.7,1.3,1c-2.3,1.9-4.6,3.8-6.9,5.7c-0.4-0.3-0.9-0.6-1.3-1
	C117.9,101.3,119.1,98.6,120.3,95.8z"/>
<path display="none" opacity="0.2" fill="#040206" d="M162,101.7c1.6-0.9,3.1-1.9,4.7-2.8c0.3,0.5,0.6,1,0.9,1.5
	c-0.5,0.3-1,0.6-1.5,0.9c0,0.3,0.2,0.5,0.3,0.7c1,1.7,2.1,3.3,3,5.1c0,0,0.1,0.1,0.2,0.1c-0.5,0.3-1,0.6-1.5,0.9
	c-1.3-1.9-2.4-4-3.6-5.9c-0.5,0.3-1.1,0.7-1.6,0.9C162.6,102.7,162.3,102.2,162,101.7z"/>
<path display="none" opacity="0.2" fill="#040205" d="M126.2,100.8c1.6-0.5,3.6,0.5,4,2.2c0.2,0.9-0.4,1.7-0.7,2.4
	c-0.8,1.5-1.6,3-2.3,4.6c-0.5-0.2-1-0.5-1.5-0.8c0.5-1,1-2,1.5-3c-0.6-0.3-1.2-0.7-1.8-0.9c-0.5,1-1,1.9-1.5,2.9
	c-0.5-0.2-1-0.4-1.6-0.7c0-0.5,0.2-0.9,0.5-1.3c0.7-1.4,1.4-2.7,2.1-4.1C125.1,101.6,125.5,101,126.2,100.8z"/>
<path display="none" opacity="0.2" fill="#FDFCFB" d="M126.6,102.8c0.1,0,0.3-0.1,0.4-0.2c0.5,0.1,1.3,0.4,1.3,1
	c-0.1,0.4-0.4,0.8-0.6,1.2c-0.6-0.3-1.2-0.6-1.8-0.9C126.2,103.5,126.4,103.1,126.6,102.8z"/>
<path display="none" opacity="0.2" fill="#030103" d="M155.9,103.9c1.4-0.4,2.8-1.5,4.3-0.9c1.5,0.4,2.3,2.3,1.6,3.6
	c-0.4,0.9-1.3,1.4-2.2,1.7c0.4,1,0.8,2,1.1,3c-0.5,0.2-1,0.4-1.5,0.6c-0.1,0-0.2,0-0.4,0c-0.8-2-1.6-4.1-2.4-6.1
	C156.3,105.2,156,104.6,155.9,103.9z"/>
<path display="none" opacity="0.2" fill="#050306" d="M132.8,103.4c0.9-0.3,2-0.1,2.8,0.5c0.9,0.7,1.1,2,0.7,3
	c-0.5-0.1-1-0.3-1.5-0.5c-0.1-0.4,0-1-0.4-1.3c-0.3-0.2-0.6-0.1-1-0.2c-0.1,0.2-0.2,0.5-0.3,0.7c0.9,0.8,2.1,1.3,2.6,2.5
	c0.5,1.5-0.6,3.3-2.2,3.7c-0.2,0-0.5,0-0.7,0c-0.8-0.2-1.7-0.5-2.2-1.3c-0.5-0.8-0.3-1.7-0.2-2.5c0.6,0.1,1.2,0.3,1.7,0.5
	c0,0.6,0,1.2,0.4,1.6c0.2,0,0.6,0,0.8,0c0.3-0.4,0.6-0.8,0.5-1.3c-0.6-0.9-1.8-1.2-2.3-2.1C131.1,105.5,131.6,103.9,132.8,103.4z"/>
<path display="none" opacity="0.2" fill="#040105" d="M152.6,104.4c0.6-0.1,1.3-0.3,1.9-0.4c0.6,2.8,1.1,5.6,1.7,8.5
	c-0.5,0.1-1,0.2-1.6,0.3c-0.1,0-0.2,0.1-0.3,0.2c-0.3-0.7-0.4-1.5-0.5-2.2C153.4,108.7,153,106.6,152.6,104.4z"/>
<path display="none" opacity="0.2" fill="#FDFDFB" d="M158.3,105c0.5-0.2,1.1-0.4,1.6-0.2c0.2,0.4,0.4,0.9,0.2,1.3
	c-0.3,0.3-0.8,0.5-1.3,0.6C158.7,106.1,158.5,105.6,158.3,105z"/>
<path display="none" opacity="0.2" fill="#030102" d="M138.7,105.9c0.9-1.5,3.3-1.7,4.5-0.4c0.4,0.3,0.5,0.8,0.7,1.3
	c0,0.5,0,0.9,0,1.4c-0.6,0-1.2,0-1.8-0.1c0-0.3,0-0.6,0-0.9c-0.4-0.4-1-0.7-1.5-0.4c-0.5,0.3-0.4,1-0.5,1.5
	c-0.1,0.9-0.3,1.7-0.3,2.6c0.1,0.1,0.2,0.3,0.3,0.4c0.5,0.3,1,0.2,1.4,0c0.1-0.3,0.3-0.6,0.4-0.9c0.6,0.1,1.2,0.2,1.8,0.2
	c0,0.9-0.3,1.9-1.1,2.3c-1.3,0.7-3.1,0.6-4.1-0.7c-0.7-0.8-0.6-2-0.4-3C138.3,108.2,138.3,107,138.7,105.9z"/>
<path display="none" opacity="0.2" fill="#020103" d="M145.3,105.1c1.1-0.2,2.3-0.2,3.4-0.2c0.6,0,1.1,0.3,1.6,0.5
	c0.8,1,1,2.5,0.4,3.6c-0.2,0.4-0.6,0.7-0.8,1.1c0.5,1.1,1.2,2.1,1.8,3.2c-0.6,0-1.3,0.1-1.9,0.1c-0.7-1.1-1.3-2.2-2.1-3.3
	c0,1.1,0.2,2.3,0.2,3.4c-0.6,0.1-1.2,0.1-1.8,0.2c-0.1-0.6-0.1-1.2-0.2-1.8c-0.1-1.5-0.3-2.9-0.4-4.4
	C145.4,106.7,145.4,105.9,145.3,105.1z"/>
<path display="none" opacity="0.2" fill="#FEFDFB" d="M147.3,106.7c0.6-0.2,1.3-0.1,1.8,0.3c0.1,0.2,0.1,0.5,0.2,0.7
	c-0.2,0.3-0.3,0.6-0.6,0.8c-0.4,0.1-0.8,0.2-1.2,0.3C147.4,108.1,147.3,107.4,147.3,106.7z"/>
</svg>
